<?xml version="1.0" encoding="UTF-8"?> <svg xmlns="http://www.w3.org/2000/svg" viewBox="0 0 640.49 177.07"><defs><style>.cls-1{fill:#224250}.cls-2{fill:#ed6c68}</style></defs><g id="Layer_2" data-name="Layer 2"><g id="Layer_1-2" data-name="Layer 1"><g id="Pathways_Logo" data-name="Pathways Logo"><path class="cls-1" d="M48 30.08c-10.46 0-20 5.26-23.32 12.12h-.3a18 18 0 0 0 .3-4.67l-.42-3.77a1.87 1.87 0 0 0-1.88-1.64H1.89A1.87 1.87 0 0 0 0 34v101.35a1.92 1.92 0 0 0 1.94 1.89h22.74a1.92 1.92 0 0 0 1.93-1.89V103.8a29.81 29.81 0 0 0-.45-6.12h.3c3.89 5.25 11.82 9.49 22.13 9.49 18.39 0 34.24-13.88 34.24-38.54S67 30.08 48 30.08Zm-5.24 55.47c-7.92 0-15.1-6-15.1-16.92s7.18-16.94 15.1-16.94c8.52 0 15.1 6.71 15.1 16.94s-6.58 16.92-15.1 16.92ZM267.2 30.07c-10.32 0-18.84 6.44-23.18 12.27.15-1.46.3-5 .3-8.32V1.76a1.78 1.78 0 0 0-1.8-1.76H220a1.78 1.78 0 0 0-1.8 1.76v101.6a1.78 1.78 0 0 0 1.8 1.76h23.17a1.78 1.78 0 0 0 1.8-1.76V68.47c0-8.75 5.38-15 13.76-15 5.68 0 8.07 4.39 8.07 10.09v39.84a1.78 1.78 0 0 0 1.8 1.76h23a1.78 1.78 0 0 0 1.8-1.76V59.57c-.04-19.85-10.21-29.5-26.2-29.5ZM414.29 32.12H391a2 2 0 0 0-2 1.36l-7.31 21.86c-1.8 5.25-4.34 16.2-5.38 18.24-1.05-4.23-2.85-11.83-5.09-18.1l-7.42-21.72a2 2 0 0 0-1.91-1.34h-13.12a2 2 0 0 0-1.9 1.32c-3.48 10-11.7 35.94-12.84 39.84-2-9.88-7.84-26.22-12.41-40.11a2 2 0 0 0-1.92-1.35h-23.32a2 2 0 0 0-1.86 2.72l29.57 69.51a2 2 0 0 0 1.87 1.21h15.31a2 2 0 0 0 1.9-1.32l12.09-33.72 12.23 33.73a2 2 0 0 0 1.9 1.31h15.32a2 2 0 0 0 1.87-1.21l29.57-69.51a2 2 0 0 0-1.86-2.72ZM614.63 60.3c-6.88-1.75-9.72-3.36-9.72-5.84 0-2.63 3.14-3.36 5.53-3.65a47 47 0 0 1 6.43.15A69.71 69.71 0 0 1 633 55.29a2 2 0 0 0 2.73-1.77V35.8a1.91 1.91 0 0 0-1.3-1.81 77.29 77.29 0 0 0-24.56-3.91c-18.39 0-29.31 8.76-29.31 23.07 0 14.6 10.17 20.43 24.52 24.08 7 1.9 11.06 3.07 11.06 5.85 0 3.06-4.18 3.94-8.52 3.94-6.4 0-16-2.57-22.91-5.75a2 2 0 0 0-2.8 1.74v18.18a1.91 1.91 0 0 0 1.24 1.79 70.07 70.07 0 0 0 24.77 4.18c20.34 0 32.59-8.32 32.59-22.91-.02-13.58-8.24-19.57-25.88-23.95ZM211.42 10.22h-22.67a1.65 1.65 0 0 0-1.67 1.64v20.26h-11.53a1.65 1.65 0 0 0-1.67 1.63v17.18a1.65 1.65 0 0 0 1.67 1.63h11.53v50.93a1.65 1.65 0 0 0 1.67 1.63h22.67a1.65 1.65 0 0 0 1.67-1.63V11.86a1.65 1.65 0 0 0-1.67-1.64ZM579.39 32.12h-24.87a1.81 1.81 0 0 0-1.74 1.26l-7.38 23.56c-1.35 3.51-6.13 22.78-7.18 24.68-1.79-8.32-4.33-16.5-6.88-24.68L524 33.38a1.81 1.81 0 0 0-1.74-1.26h-25a1.79 1.79 0 0 0-1.69 2.45l29.49 71L513.53 137a1.66 1.66 0 0 0 1.59 2.21h24.47a1.68 1.68 0 0 0 1.59-1.1l9.08-24.84c.92-2.16 1.88-4.56 2.91-7.26l27.92-71.47a1.79 1.79 0 0 0-1.7-2.42ZM167.25 32.34h-20.72a1.79 1.79 0 0 0-1.78 1.59l-.43 3.82a18.28 18.28 0 0 0 .31 4.67h-.31C141 35.56 131.47 30.3 121 30.3c-19 0-34.84 14-34.84 38.54 0 17.86 8.3 30.06 19.86 35.44 15.3 6.68 27.55-4.69 27.55-19.67a.45.45 0 0 0-.66-.4 14.85 14.85 0 0 1-6.69 1.56c-8.52 0-15.09-6.56-15.09-16.93s7.26-15.07 14.23-15.13c7.46-.06 14.95 3.08 18.44 15.85 4.78 17.48-5.05 32.88-5.89 34.26-.53.86-.29 1.3.46 1.3h28.84a1.78 1.78 0 0 0 1.77-1.78V34.08a1.74 1.74 0 0 0-1.73-1.74ZM491 32.34h-20.69a1.79 1.79 0 0 0-1.78 1.59l-.42 3.82a18 18 0 0 0 .3 4.67h-.3c-3.29-6.86-12.86-12.12-23.32-12.12-19 0-34.84 14-34.84 38.54 0 17.86 8.3 30.06 19.86 35.44 15.31 6.68 27.56-4.69 27.56-19.67a.46.46 0 0 0-.67-.4 14.84 14.84 0 0 1-6.7 1.56c-8.52 0-15.1-6.56-15.1-16.93s7.27-15.07 14.23-15.13c7.47-.06 15 3.08 18.44 15.85 4.78 17.48-5 32.88-5.89 34.26-.52.86-.28 1.3.46 1.3H491a1.78 1.78 0 0 0 1.78-1.78V34.08a1.75 1.75 0 0 0-1.78-1.74Z"></path><path class="cls-2" d="M113.11 144.8a22.28 22.28 0 0 0-5.91-2.63 22.64 22.64 0 0 0-5.93-.89 15 15 0 0 0-7.61 1.95 19.77 19.77 0 0 0-5.88 5.18 24 24 0 0 0-3.78 7.38 29.49 29.49 0 0 0-.88 13.8 11.49 11.49 0 0 0 1.46 4 7.09 7.09 0 0 0 2.73 2.56 9.31 9.31 0 0 0 4.44.94 9.18 9.18 0 0 0 5-1.29 12.83 12.83 0 0 0 3.63-3.43l.61-.85.08 1.05a4.87 4.87 0 0 0 1.38 3.41 4.78 4.78 0 0 0 3.24 1 11.92 11.92 0 0 0 2.51-.28 8 8 0 0 0 2.08-.81 15.51 15.51 0 0 1-.63-2.66 23 23 0 0 1-.24-3.3 13.54 13.54 0 0 1 .21-2.47Zm-11.25 17.78a12 12 0 0 1-.78 3 10 10 0 0 1-1.42 2.42 7.73 7.73 0 0 1-2 1.73 4.66 4.66 0 0 1-2.46.67c-2.71 0-4.08-2.06-4.08-6.14a26.49 26.49 0 0 1 .8-6.8 18.79 18.79 0 0 1 2.13-5.17 11.15 11.15 0 0 1 3.1-3.29 5.76 5.76 0 0 1 6.66-.27l.21.14ZM142.53 142.65a7.71 7.71 0 0 0-4.76-1.37 10.3 10.3 0 0 0-5.15 1.15 15.28 15.28 0 0 0-3.61 2.8l-.85.91 2.31-14.78c0-.28.08-.56.1-.84s0-.57 0-.85a5 5 0 0 0-1.1-3.28 4.67 4.67 0 0 0-3.72-1.29c-.43 0-.92 0-1.47.08s-.91.1-1.34.16L115.08 176h8.46l3.17-20.22a10.48 10.48 0 0 1 2.2-5.21 5.27 5.27 0 0 1 4.13-2.1c1.6 0 2.69.45 3.24 1.34a5.68 5.68 0 0 1 .78 3c0 .5 0 1-.07 1.5s-.12 1-.21 1.56L133.63 176h8.46l3.17-20.22c.13-.8.25-1.64.34-2.49a23.92 23.92 0 0 0 .14-2.55 14.86 14.86 0 0 0-.67-4.54 7.27 7.27 0 0 0-2.54-3.55ZM180.07 144.8a22.28 22.28 0 0 0-5.91-2.63 22.63 22.63 0 0 0-5.92-.89 15.06 15.06 0 0 0-7.62 1.95 19.61 19.61 0 0 0-5.87 5.18 24.29 24.29 0 0 0-3.78 7.38 29.87 29.87 0 0 0-.88 13.8 11.49 11.49 0 0 0 1.46 4 7.23 7.23 0 0 0 2.73 2.56 9.34 9.34 0 0 0 4.44.94 9.16 9.16 0 0 0 5-1.29 12.83 12.83 0 0 0 3.63-3.43l.61-.85.09 1.05a4.86 4.86 0 0 0 1.37 3.41 4.78 4.78 0 0 0 3.24 1 12 12 0 0 0 2.52-.28 8 8 0 0 0 2.07-.81 15.51 15.51 0 0 1-.63-2.66 23 23 0 0 1-.24-3.3 13.54 13.54 0 0 1 .21-2.47Zm-11.25 17.78a12.46 12.46 0 0 1-.77 3 9.69 9.69 0 0 1-1.43 2.46 7.57 7.57 0 0 1-2 1.73 4.66 4.66 0 0 1-2.46.67c-2.71 0-4.08-2.06-4.08-6.14a26.94 26.94 0 0 1 .8-6.8 18.79 18.79 0 0 1 2.13-5.17 11 11 0 0 1 3.06-3.31 5.75 5.75 0 0 1 6.65-.27l.22.14ZM209.2 171.65a35.4 35.4 0 0 1-1.8-3.13l-5.46-11.08 11.66-13.7a9.06 9.06 0 0 0-1.92-1.57 5.22 5.22 0 0 0-2.77-.68 6.08 6.08 0 0 0-2.67.55 7.42 7.42 0 0 0-2.31 1.94L198 150.9a34 34 0 0 0-2.44 3.1 11.49 11.49 0 0 0-1.46 2.53l-.42 1.11.1 1.2a9 9 0 0 0 .85 3.15c.51 1.07.87 1.88 1.1 2.41l3.62 7.41a14.64 14.64 0 0 0 1.47 2.53 6.44 6.44 0 0 0 1.48 1.44 5.26 5.26 0 0 0 1.65.71 9.27 9.27 0 0 0 2 .21 8.83 8.83 0 0 0 3.58-.74 8.09 8.09 0 0 0 2.26-1.39 10.83 10.83 0 0 1-2.59-2.92ZM197.3 131.36c0-.28.07-.56.1-.84s0-.57 0-.85a5 5 0 0 0-1.08-3.29 4.43 4.43 0 0 0-3.6-1.28c-.44 0-.93 0-1.48.08s-.9.1-1.33.16L182 176h8.32l2.53-16.13-.07.2ZM239.82 145.53a10.47 10.47 0 0 0-3.8-3.09 13 13 0 0 0-5.75-1.16 15.58 15.58 0 0 0-7.45 1.73 16.72 16.72 0 0 0-5.46 4.67 21 21 0 0 0-3.36 6.9 30.34 30.34 0 0 0-1.15 8.38 22.44 22.44 0 0 0 .64 5.37 12.58 12.58 0 0 0 2.06 4.49 10.25 10.25 0 0 0 3.76 3.09 13.32 13.32 0 0 0 5.89 1.16 15.42 15.42 0 0 0 13.18-6.54 21 21 0 0 0 3.19-6.94 31.78 31.78 0 0 0 1.05-8.2A21.53 21.53 0 0 0 242 150a12.78 12.78 0 0 0-2.18-4.47Zm-6.23 16a17.11 17.11 0 0 1-1.72 4.8 8.76 8.76 0 0 1-2.61 3 5.65 5.65 0 0 1-3.23 1 4.25 4.25 0 0 1-3.49-1.78 8.49 8.49 0 0 1-1.35-5.23 31.15 31.15 0 0 1 .62-6.53 17.63 17.63 0 0 1 1.72-4.8 8.79 8.79 0 0 1 2.62-3 5.62 5.62 0 0 1 3.23-1.05 4.25 4.25 0 0 1 3.49 1.79 8.5 8.5 0 0 1 1.35 5.22 30.39 30.39 0 0 1-.63 6.6ZM276.82 144.8a22.28 22.28 0 0 0-5.91-2.63 22.64 22.64 0 0 0-5.93-.89 15 15 0 0 0-7.61 1.95 19.77 19.77 0 0 0-5.88 5.18 24 24 0 0 0-3.77 7.38 29.49 29.49 0 0 0-.88 13.8 11.49 11.49 0 0 0 1.46 4 7.09 7.09 0 0 0 2.73 2.56 9.31 9.31 0 0 0 4.44.94 9.18 9.18 0 0 0 5-1.29 12.83 12.83 0 0 0 3.63-3.43l.61-.85.08 1.05a4.87 4.87 0 0 0 1.38 3.41 4.78 4.78 0 0 0 3.24 1 11.92 11.92 0 0 0 2.51-.28 8 8 0 0 0 2.08-.81 15.51 15.51 0 0 1-.63-2.66 23 23 0 0 1-.24-3.3 13.54 13.54 0 0 1 .21-2.47Zm-11.25 17.78a12 12 0 0 1-.78 3 10 10 0 0 1-1.42 2.46 7.73 7.73 0 0 1-1.95 1.73 4.66 4.66 0 0 1-2.46.67c-2.71 0-4.08-2.06-4.08-6.14a26.94 26.94 0 0 1 .8-6.8 18.79 18.79 0 0 1 2.13-5.17 11.15 11.15 0 0 1 3.05-3.31 5.76 5.76 0 0 1 6.66-.27l.21.14ZM301.37 163.4l2.24-14.59h8.77l1-6.73h-8.76l.68-4.67a7.89 7.89 0 0 0 .1-.85v-.84a4.94 4.94 0 0 0-1.1-3.28 4.63 4.63 0 0 0-3.71-1.29c-.44 0-.93 0-1.48.07s-.88.1-1.34.17L292.89 163q-.13 1-.24 1.95c-.06.62-.1 1.21-.1 1.78 0 3.24.82 5.8 2.44 7.61s4.08 2.71 7.38 2.71a16.67 16.67 0 0 0 4.35-.53 9.82 9.82 0 0 0 3.49-1.79 6.11 6.11 0 0 0 1.67-2 4.7 4.7 0 0 0 .51-2.06 3.81 3.81 0 0 0-.69-2.15 5.24 5.24 0 0 0-2.08-1.66 13.35 13.35 0 0 1-2 2.21 4.42 4.42 0 0 1-3 1.11c-1.62 0-3.54-.72-3.54-4.17 0-.4 0-.82.07-1.24s.13-.87.22-1.37ZM339.86 143.86a8.87 8.87 0 0 0-3-1.88 11.08 11.08 0 0 0-4.1-.7A16.86 16.86 0 0 0 325 143a17.5 17.5 0 0 0-5.76 4.67 21.5 21.5 0 0 0-3.63 6.9 27.33 27.33 0 0 0-1.28 8.37 21.13 21.13 0 0 0 .67 5.37 12 12 0 0 0 2.19 4.48 11 11 0 0 0 4 3.1 14.35 14.35 0 0 0 6.13 1.16 16.85 16.85 0 0 0 6.12-.92 17.47 17.47 0 0 0 3.79-2 9.08 9.08 0 0 0 1.7-1.74 3.91 3.91 0 0 0 .74-2.39c0-1.57-1-2.94-3-4.09a14.43 14.43 0 0 1-3.27 3.09 8.6 8.6 0 0 1-5 1.45 5.64 5.64 0 0 1-4-1.71 6.74 6.74 0 0 1-1.4-2.14 7.93 7.93 0 0 1-.55-3.06v-.88l.44.06a7.22 7.22 0 0 0 1.05.07h1.23a36.19 36.19 0 0 0 5.76-.5 17 17 0 0 0 5.55-1.92 12.44 12.44 0 0 0 4.19-3.85 11.22 11.22 0 0 0 1.64-6.38 9.76 9.76 0 0 0-.62-3.5 7.79 7.79 0 0 0-1.83-2.78Zm-5.92 10.32a6.81 6.81 0 0 1-2.21 2 10.53 10.53 0 0 1-3 1.17 14.33 14.33 0 0 1-3.24.38h-1a9.48 9.48 0 0 1-1.11-.08h-.42l.09-.41a15.8 15.8 0 0 1 3-6.72 6.56 6.56 0 0 1 5.26-2.62 3.17 3.17 0 0 1 2.7 1.07 3.83 3.83 0 0 1 .77 2.38 4.89 4.89 0 0 1-.84 2.83ZM388.56 144.8a22.28 22.28 0 0 0-5.91-2.63 22.63 22.63 0 0 0-5.92-.89 15.06 15.06 0 0 0-7.62 1.95 19.77 19.77 0 0 0-5.88 5.18 24 24 0 0 0-3.77 7.38 29.49 29.49 0 0 0-.88 13.8 11.49 11.49 0 0 0 1.46 4 7.09 7.09 0 0 0 2.73 2.56 9.31 9.31 0 0 0 4.44.94 9.18 9.18 0 0 0 5-1.29 12.83 12.83 0 0 0 3.63-3.43l.61-.85.08 1.05a4.87 4.87 0 0 0 1.38 3.41 4.78 4.78 0 0 0 3.24 1 11.85 11.85 0 0 0 2.51-.28 8 8 0 0 0 2.08-.81 15.51 15.51 0 0 1-.63-2.66 23 23 0 0 1-.24-3.3 13.54 13.54 0 0 1 .21-2.47Zm-11.25 17.78a12 12 0 0 1-.78 3 9.38 9.38 0 0 1-1.42 2.46 7.73 7.73 0 0 1-1.95 1.73 4.66 4.66 0 0 1-2.46.67c-2.71 0-4.08-2.06-4.08-6.14a26.94 26.94 0 0 1 .8-6.8 18.79 18.79 0 0 1 2.13-5.17 11.15 11.15 0 0 1 3.05-3.33 5.76 5.76 0 0 1 6.66-.27l.21.14ZM418 142.65a7.76 7.76 0 0 0-4.77-1.37 10.33 10.33 0 0 0-5.15 1.15 15.49 15.49 0 0 0-3.61 2.8l-.85.91 2.31-14.78a8 8 0 0 0 .1-.84v-.85a5 5 0 0 0-1.11-3.28 4.66 4.66 0 0 0-3.71-1.29c-.44 0-.93 0-1.48.08s-.9.1-1.34.16L390.53 176H399l3.17-20.22a10.49 10.49 0 0 1 2.21-5.21 5.23 5.23 0 0 1 4.12-2.1c1.6 0 2.69.45 3.24 1.34a5.68 5.68 0 0 1 .78 3c0 .5 0 1-.07 1.5s-.12 1-.21 1.56L409.08 176h8.47l3.16-20.22c.14-.8.25-1.64.34-2.49a23.92 23.92 0 0 0 .14-2.55 14.86 14.86 0 0 0-.67-4.54 7.32 7.32 0 0 0-2.52-3.55ZM451.79 170a13.54 13.54 0 0 1 .21-2.47l3.52-22.68a22.28 22.28 0 0 0-5.91-2.63 22.63 22.63 0 0 0-5.92-.89 15.06 15.06 0 0 0-7.62 1.95 19.61 19.61 0 0 0-5.87 5.18 24.29 24.29 0 0 0-3.78 7.38 28.75 28.75 0 0 0-1.31 8.63 29.61 29.61 0 0 0 .43 5.17 11.49 11.49 0 0 0 1.46 4 7.23 7.23 0 0 0 2.73 2.56 9.34 9.34 0 0 0 4.44.94 9.19 9.19 0 0 0 5-1.29 12.93 12.93 0 0 0 3.62-3.43l.61-.85.09 1.05a4.86 4.86 0 0 0 1.37 3.41 4.78 4.78 0 0 0 3.24 1 11.94 11.94 0 0 0 2.52-.28 8 8 0 0 0 2.07-.81 14.66 14.66 0 0 1-.62-2.66 21.66 21.66 0 0 1-.28-3.28Zm-7.52-7.37a12.46 12.46 0 0 1-.77 3 9.69 9.69 0 0 1-1.43 2.46 7.57 7.57 0 0 1-1.95 1.73 4.66 4.66 0 0 1-2.46.67c-2.71 0-4.08-2.06-4.08-6.14a26.94 26.94 0 0 1 .8-6.8 18.79 18.79 0 0 1 2.13-5.17 11 11 0 0 1 3.06-3.31 5.75 5.75 0 0 1 6.65-.27l.22.14Z"></path></g></g></g></svg> 