<svg width="269" height="72" viewBox="0 0 269 72" fill="none" xmlns="http://www.w3.org/2000/svg">
<path d="M81.3488 26.3463C82.7173 26.0569 84.1128 25.915 85.5116 25.9229C87.3013 25.9229 88.6442 26.2828 89.5403 27.0024C90.4364 27.7221 90.8844 28.8369 90.8844 30.3468C90.882 30.4789 90.8725 30.6108 90.8562 30.7419C90.8385 30.9006 90.8103 31.0947 90.7786 31.3487L90.2494 34.4567H97.7283L96.4654 42.306H88.9335L87.7764 49.3122C87.7384 49.5205 87.7207 49.732 87.7235 49.9437C87.7235 51.0679 88.3021 51.63 89.4592 51.63C90.5481 51.63 91.5488 50.9103 92.4613 49.4709C93.9359 49.8896 95.0072 50.4517 95.6751 51.1572C96.3585 51.9011 96.7188 52.8856 96.677 53.8948C96.6957 54.6231 96.5511 55.3464 96.2537 56.0115C95.8735 56.7379 95.3546 57.3828 94.7262 57.9094C92.9717 59.5252 90.5493 60.333 87.4589 60.333C84.1922 60.333 81.691 59.5781 79.9553 58.0682C78.2196 56.5583 77.3494 54.324 77.3447 51.3654C77.3646 50.3598 77.453 49.3568 77.6093 48.3632L81.3488 26.3463Z" fill="#6682A8"/>
<path d="M104.103 22.6068C105.435 22.3211 106.794 22.1792 108.156 22.1834C111.773 22.1834 113.582 23.6581 113.582 26.6073C113.566 26.943 113.531 27.2776 113.476 27.6092L112.002 36.5098C112.819 35.5183 113.85 34.7239 115.017 34.1858C116.185 33.6477 117.458 33.3797 118.743 33.4018C120.747 33.4018 122.31 34.0251 123.432 35.2716C124.553 36.518 125.116 38.2302 125.118 40.408C125.119 41.1306 125.066 41.8523 124.959 42.567C124.853 43.2726 124.736 44.0099 124.606 44.779L123.195 53.2457C123.006 54.218 122.9 55.2046 122.878 56.1949C122.851 57.1354 122.958 58.0749 123.195 58.9854C121.561 59.7416 119.778 60.1202 117.978 60.0931C116.154 60.0931 114.803 59.758 113.924 59.0912C113.046 58.4245 112.608 57.3732 112.608 55.9162C112.61 55.3878 112.644 54.8599 112.711 54.3358L114.45 44.0134C114.485 43.837 114.51 43.6606 114.531 43.4349C114.552 43.2091 114.556 43.0327 114.556 42.8563C114.556 41.9414 114.085 41.4852 113.145 41.4875C111.843 41.4875 111.056 42.2954 110.774 43.9076L108.103 59.5428H97.834L104.103 22.6068Z" fill="#6682A8"/>
<path d="M127.33 49.3614C127.305 47.1119 127.707 44.878 128.516 42.7786C129.243 40.8765 130.344 39.1396 131.754 37.6703C133.107 36.2816 134.742 35.199 136.548 34.4953C138.446 33.7622 140.466 33.3959 142.5 33.4158C144.852 33.4158 146.861 33.8721 148.529 34.7846C150.156 35.658 151.486 36.9968 152.349 38.6299C153.252 40.3884 153.705 42.3437 153.665 44.3202C153.721 47.2535 153.072 50.1573 151.771 52.7869C150.61 55.1298 148.788 57.0802 146.528 58.3961C144.157 59.7127 141.479 60.3761 138.767 60.3188C135.113 60.3188 132.29 59.3521 130.301 57.4189C128.311 55.4857 127.321 52.7999 127.33 49.3614ZM139.656 52.7869C140.425 52.7869 141.103 52.3918 141.681 51.6016C142.338 50.6409 142.804 49.563 143.054 48.4266C143.376 47.1711 143.545 45.881 143.555 44.5848C143.555 43.283 143.368 42.3623 143.001 41.819C142.811 41.5463 142.553 41.3276 142.253 41.1841C141.953 41.0407 141.621 40.9774 141.29 41.0006C140.872 41.0108 140.463 41.1244 140.1 41.3312C139.737 41.5381 139.43 41.8317 139.208 42.1859C138.549 43.1589 138.084 44.2502 137.84 45.3997C137.505 46.7524 137.337 48.1409 137.339 49.5343C137.339 51.7004 138.111 52.7846 139.656 52.7869Z" fill="#6682A8"/>
<path d="M158.826 34.0862C160.168 33.6349 161.574 33.4038 162.989 33.4019C164.885 33.4019 166.263 33.7358 167.124 34.4038C167.981 35.0705 168.415 36.143 168.415 37.6176C168.415 37.8257 168.415 38.048 168.387 38.2737C168.358 38.4995 168.341 38.7218 168.309 38.9334L166.411 50.0989C166.374 50.2902 166.348 50.4833 166.333 50.6775C166.316 50.8891 166.305 51.0832 166.305 51.2596C166.305 52.1732 166.781 52.6283 167.716 52.6283C169.018 52.6283 169.805 51.8205 170.087 50.2047L172.775 34.0862C174.116 33.6353 175.52 33.4041 176.934 33.4019C178.832 33.4019 180.211 33.7358 181.069 34.4038C181.927 35.0717 182.358 36.143 182.36 37.6176C182.36 37.8257 182.36 38.048 182.335 38.2737C182.311 38.4995 182.29 38.7218 182.254 38.9334L179.831 53.1011C179.663 54.1643 179.576 55.2386 179.57 56.3149C179.548 57.3423 179.654 58.3684 179.884 59.3699C178.433 59.8166 176.925 60.0472 175.407 60.0543C173.761 60.0543 172.575 59.8438 171.851 59.4229C171.042 58.8922 170.424 58.1173 170.087 57.2109C169.24 58.2391 168.168 59.0587 166.954 59.6063C165.613 60.0899 164.192 60.3138 162.767 60.266C160.556 60.266 158.844 59.6686 157.63 58.4739C156.417 57.2791 155.811 55.6328 155.813 53.535C155.854 51.925 156.03 50.3212 156.339 48.7407L158.826 34.0862Z" fill="#6682A8"/>
<path d="M197.015 57.7788C196.282 58.409 195.432 58.8886 194.514 59.1899C193.493 59.4734 192.436 59.6065 191.377 59.585C188.955 59.585 187.074 58.7419 185.733 57.0556C184.392 55.3693 183.724 52.9469 183.729 49.7884C183.687 46.8089 184.417 43.8692 185.846 41.2546C187.16 38.8196 189.132 36.8026 191.536 35.4338C194.068 34.0458 196.919 33.3464 199.805 33.4053C201.847 33.3733 203.883 33.6105 205.863 34.1109C207.636 34.5926 209.323 35.3472 210.865 36.3475L207.443 56.5229C206.813 60.2859 205.9 63.2093 204.705 65.293C203.601 67.2942 201.921 68.9177 199.883 69.9532C197.865 70.9692 195.364 71.4784 192.379 71.4808C189.042 71.4808 186.496 71.0421 184.742 70.1649C183.687 69.6917 182.752 68.989 182.004 68.1082C181.44 67.3683 181.143 66.4595 181.161 65.5294C181.169 64.4484 181.518 63.3975 182.159 62.5272C182.836 61.5703 183.767 60.8223 184.847 60.3682C185.863 61.737 186.899 62.693 187.955 63.2363C189.151 63.8131 190.467 64.095 191.794 64.0583C193.162 64.0583 194.25 63.6632 195.057 62.873C195.864 62.0827 196.426 60.8798 196.743 59.264L197.015 57.7788ZM199.752 41.6603C199.298 41.422 198.791 41.3007 198.278 41.3075C197.822 41.3022 197.37 41.3937 196.952 41.5762C196.534 41.7587 196.16 42.0278 195.854 42.3659C195.126 43.1787 194.586 44.1424 194.274 45.1881C193.885 46.3879 193.69 47.6418 193.695 48.9029C193.695 51.0431 194.45 52.1132 195.96 52.1132C197.294 52.1132 198.101 51.29 198.384 49.6437L199.752 41.6603Z" fill="#6682A8"/>
<path d="M217.133 22.6068C218.466 22.3209 219.827 22.179 221.19 22.1835C224.807 22.1835 226.615 23.6581 226.612 26.6073C226.597 26.9431 226.561 27.2776 226.507 27.6092L225.035 36.5098C225.853 35.5177 226.883 34.7229 228.051 34.1847C229.218 33.6466 230.492 33.3789 231.777 33.4018C233.776 33.4018 235.338 34.0251 236.462 35.2716C237.586 36.5181 238.148 38.2302 238.148 40.408C238.149 41.1307 238.096 41.8524 237.989 42.567C237.884 43.2726 237.766 44.0099 237.637 44.779L236.226 53.2457C236.037 54.218 235.93 55.2046 235.908 56.1949C235.881 57.1354 235.988 58.0749 236.226 58.9854C234.593 59.7421 232.811 60.1207 231.011 60.0931C229.184 60.0931 227.832 59.7592 226.955 59.0912C226.077 58.4233 225.639 57.365 225.639 55.9162C225.641 55.3877 225.677 54.8599 225.744 54.3358L227.48 44.0134C227.518 43.8223 227.545 43.6291 227.561 43.4349C227.561 43.2232 227.586 43.0327 227.586 42.8563C227.586 41.9414 227.116 41.4852 226.175 41.4875C224.877 41.4875 224.086 42.2942 223.804 43.9076L221.137 59.5428H210.864L217.133 22.6068Z" fill="#6682A8"/>
<path d="M244.625 26.3463C245.994 26.0569 247.389 25.915 248.788 25.9229C250.58 25.9229 251.923 26.2828 252.817 27.0024C253.711 27.7221 254.159 28.8369 254.161 30.3468C254.158 30.4789 254.149 30.6108 254.133 30.7419C254.115 30.9006 254.09 31.0947 254.055 31.3487L253.529 34.4567H261.008L259.742 42.306H252.21L251.06 49.3122C251.022 49.5205 251.004 49.732 251.007 49.9437C251.007 51.0679 251.587 51.63 252.746 51.63C253.833 51.63 254.834 50.9103 255.748 49.4709C257.223 49.8896 258.293 50.4517 258.959 51.1572C259.642 51.9011 260.002 52.8856 259.961 53.8948C259.978 54.6227 259.835 55.3455 259.541 56.0115C259.16 56.7372 258.641 57.3818 258.013 57.9094C256.256 59.5252 253.833 60.333 250.742 60.333C247.48 60.333 244.979 59.5781 243.239 58.0682C241.499 56.5583 240.629 54.324 240.632 51.3654C240.65 50.3599 240.737 49.3568 240.893 48.3632L244.625 26.3463Z" fill="#6682A8"/>
<path d="M130.985 8.35443C131.861 8.16934 132.754 8.07828 133.648 8.08279C135.963 8.08279 137.121 9.02353 137.123 10.905C137.129 11.0061 137.129 11.1074 137.123 11.2084C137.123 11.3001 137.095 11.413 137.07 11.5612L135.419 21.3402C134.7 25.5736 133.913 28.2712 133.059 29.433C132.464 30.3451 131.64 31.0854 130.669 31.5805C129.699 32.0756 128.616 32.3082 127.528 32.2552C126.469 32.2552 125.662 31.973 125.101 31.4121C124.809 31.0956 124.584 30.7234 124.439 30.3179C124.294 29.9124 124.232 29.4819 124.257 29.052C124.259 28.6559 124.293 28.2607 124.36 27.8702C125.076 27.8797 125.787 27.7478 126.452 27.4821C126.996 27.2173 127.43 26.7705 127.679 26.2192C128.091 25.2253 128.37 24.1815 128.508 23.1147L130.985 8.35443ZM131.525 3.63071C131.5 3.14385 131.576 2.65705 131.748 2.20106C131.921 1.74506 132.186 1.32975 132.527 0.981339C132.889 0.648524 133.314 0.390813 133.776 0.223088C134.239 0.0553629 134.73 -0.0190522 135.222 0.00414032C136.012 -0.0202786 136.78 0.264504 137.363 0.797894C137.636 1.03409 137.855 1.32678 138.003 1.65572C138.152 1.98465 138.227 2.34196 138.224 2.7029C138.25 3.19286 138.173 3.6828 137.999 4.14142C137.824 4.60003 137.556 5.01724 137.212 5.36639C136.85 5.69986 136.425 5.95798 135.962 6.12575C135.499 6.29351 135.008 6.36756 134.516 6.34358C133.721 6.37362 132.945 6.08981 132.357 5.55336C132.089 5.31141 131.875 5.01446 131.732 4.68271C131.588 4.35095 131.517 3.99216 131.525 3.63071Z" fill="#6682A8"/>
<path d="M140.023 8.185C140.882 7.89559 141.781 7.74784 142.687 7.74756C143.9 7.74756 144.782 7.9604 145.333 8.38609C145.883 8.81295 146.158 9.50087 146.158 10.4428C146.158 10.5804 146.158 10.718 146.141 10.8661C146.123 11.0143 146.112 11.1519 146.091 11.2859L144.874 18.4368C144.831 18.6814 144.808 18.9292 144.807 19.1776C144.807 19.7632 145.11 20.0525 145.717 20.0525C146.55 20.0525 147.055 19.5363 147.234 18.5038L148.956 8.185C149.814 7.89559 150.714 7.74784 151.619 7.74756C152.833 7.74756 153.715 7.9604 154.265 8.38609C154.815 8.81295 155.091 9.50087 155.091 10.4428C155.091 10.5804 155.091 10.718 155.091 10.8661C155.091 11.0143 155.059 11.1519 155.038 11.2859L153.485 20.3594C153.378 21.0398 153.323 21.7274 153.32 22.4161C153.305 23.0734 153.373 23.7299 153.521 24.3705C152.592 24.6571 151.625 24.8045 150.653 24.808C149.597 24.808 148.838 24.6739 148.377 24.4058C147.862 24.066 147.467 23.5722 147.248 22.9947C146.706 23.6535 146.019 24.1786 145.241 24.5293C144.383 24.8409 143.472 24.9846 142.56 24.9526C141.149 24.9526 140.054 24.5704 139.276 23.8061C138.497 23.0417 138.109 21.9834 138.111 20.6311C138.136 19.6003 138.248 18.5735 138.446 17.5619L140.023 8.185Z" fill="#6682A8"/>
<path d="M157.591 17.6608C157.986 18.2993 158.507 18.8503 159.122 19.2801C159.64 19.6419 160.254 19.8408 160.886 19.8516C161.493 19.8516 161.796 19.6293 161.796 19.1778C161.799 18.9172 161.703 18.6652 161.528 18.4722C161.298 18.2281 161.044 18.0083 160.769 17.8161C160.441 17.5797 160.032 17.3045 159.538 16.9906C158.459 16.2462 157.728 15.5794 157.347 14.9832C156.965 14.3845 156.767 13.6863 156.779 12.9759C156.771 11.9898 157.091 11.0289 157.69 10.2454C158.327 9.41206 159.181 8.7701 160.159 8.3898C161.326 7.94155 162.568 7.72468 163.817 7.75127C165.346 7.71051 166.856 8.08871 168.185 8.84489C169.41 9.57396 170.023 10.4794 170.023 11.5613C170.016 11.9428 169.926 12.3183 169.76 12.6618C169.593 13.0053 169.355 13.3087 169.06 13.551C168.423 14.1326 167.612 14.4873 166.753 14.5599C166.212 13.1676 165.357 12.4715 164.188 12.4715C163.983 12.464 163.783 12.5361 163.63 12.6725C163.56 12.7365 163.503 12.815 163.466 12.9027C163.428 12.9903 163.409 13.0851 163.412 13.1805C163.416 13.2882 163.443 13.3936 163.493 13.4893C163.542 13.585 163.612 13.6687 163.697 13.7344C163.992 13.9742 164.303 14.1923 164.629 14.387C165.056 14.6552 165.61 15.0256 166.283 15.4983C167.069 16.0133 167.74 16.6846 168.255 17.4703C168.669 18.2172 168.872 19.062 168.845 19.9151C168.853 20.6299 168.686 21.3359 168.358 21.9712C168.03 22.6065 167.552 23.1518 166.964 23.5593C165.706 24.5001 164.087 24.9704 162.106 24.9704C160.126 24.9704 158.519 24.6553 157.284 24.025C156.646 23.7245 156.087 23.2801 155.651 22.7268C155.319 22.2476 155.147 21.6759 155.16 21.0934C155.143 20.4077 155.344 19.7342 155.735 19.1707C156.234 18.5357 156.868 18.0199 157.591 17.6608Z" fill="#6682A8"/>
<path d="M173.269 3.22852C174.14 3.04461 175.028 2.95356 175.919 2.95687C177.065 2.95687 177.926 3.18971 178.501 3.66243C179.076 4.13516 179.358 4.83719 179.358 5.8038C179.363 5.88841 179.363 5.97319 179.358 6.05781C179.358 6.16011 179.33 6.28711 179.305 6.44586L178.952 8.43554H183.74L182.932 13.4591H178.127L177.383 17.9147C177.36 18.0487 177.349 18.1845 177.351 18.3204C177.351 19.0401 177.721 19.3999 178.462 19.3999C179.168 19.3999 179.799 18.9378 180.385 18.017C181.153 18.1909 181.862 18.5631 182.441 19.0965C182.66 19.3336 182.829 19.6116 182.939 19.9143C183.049 20.217 183.098 20.5386 183.084 20.8604C183.094 21.3242 183.001 21.7846 182.812 22.208C182.569 22.6725 182.237 23.0848 181.835 23.4216C180.713 24.4541 179.162 24.9703 177.182 24.9703C175.088 24.9703 173.487 24.487 172.377 23.5204C171.267 22.5538 170.71 21.1262 170.708 19.2376C170.721 18.5936 170.777 17.9513 170.877 17.315L173.269 3.22852Z" fill="#6682A8"/>
<path d="M206.611 20.3594C206.502 21.0398 206.446 21.7273 206.441 22.4161C206.427 23.0734 206.495 23.7299 206.642 24.3705C205.714 24.6568 204.749 24.8042 203.778 24.808C202.719 24.808 201.961 24.681 201.502 24.4199C200.975 24.0832 200.576 23.5787 200.37 22.9876C199.843 23.6509 199.163 24.1759 198.388 24.5171C197.613 24.8582 196.766 25.0053 195.921 24.9456C195.241 24.9688 194.565 24.8277 193.951 24.5341C193.337 24.2406 192.803 23.8033 192.394 23.2593C191.519 22.1327 191.081 20.604 191.081 18.6732C191.054 16.6886 191.527 14.7293 192.457 12.9758C193.295 11.3727 194.569 10.0396 196.133 9.13047C197.744 8.2151 199.572 7.74852 201.425 7.77932C202.697 7.75825 203.966 7.90534 205.199 8.21677C206.338 8.54089 207.423 9.02934 208.42 9.6667L206.611 20.3594ZM201.393 13.1768C201.119 13.0113 200.803 12.9292 200.483 12.9405C200.188 12.9429 199.898 13.0105 199.632 13.1386C199.367 13.2667 199.133 13.4521 198.948 13.6813C198.47 14.2525 198.119 14.9186 197.918 15.6357C197.675 16.423 197.55 17.2423 197.548 18.0664C197.548 19.3928 198.01 20.0525 198.931 20.0525C199.784 20.0525 200.302 19.5363 200.483 18.5038L201.393 13.1768Z" fill="#6682A8"/>
<path d="M28.4776 34.7952C28.4991 34.7457 28.5071 34.6914 28.5009 34.6378C28.4947 34.5842 28.4745 34.5332 28.4423 34.4899C28.4101 34.4467 28.3671 34.4126 28.3175 34.3913C28.268 34.3699 28.2137 34.362 28.1601 34.3683C26.8744 34.5486 25.5717 34.5758 24.2796 34.4494C19.8554 34.0063 15.788 31.8257 12.9703 28.3862C10.1526 24.9468 8.81496 20.5297 9.25115 16.1049C9.35983 15.028 9.5749 13.9644 9.89321 12.9299C9.90778 12.8743 9.90628 12.8158 9.88888 12.761C9.87148 12.7063 9.8389 12.6576 9.79493 12.6207C9.75095 12.5837 9.69739 12.56 9.64048 12.5523C9.58356 12.5446 9.52562 12.5532 9.4734 12.5771C5.61733 14.3194 2.6019 17.5093 1.07907 21.4572C-0.443767 25.4051 -0.351637 29.7937 1.33554 33.6742C3.02271 37.5547 6.16936 40.6153 10.0952 42.1942C14.0209 43.7731 18.4104 43.7435 22.3146 42.1118C22.3503 43.0891 22.6798 44.033 23.26 44.8203C23.8402 45.6075 24.6443 46.2016 25.5672 46.5251C25.9792 46.6685 26.4089 46.7551 26.8443 46.7826C26.8899 46.7852 26.9355 46.7776 26.9779 46.7604C27.0202 46.7431 27.0581 46.7166 27.0889 46.6828C27.1197 46.649 27.1425 46.6087 27.1557 46.5649C27.1689 46.5212 27.1722 46.475 27.1653 46.4298C26.9264 45.0769 26.8189 43.7041 26.8443 42.3305C26.9045 39.7377 27.4589 37.1802 28.4776 34.7952Z" fill="#F06292"/>
<path d="M17.8096 8.50254C15.6259 10.7215 14.0313 13.4168 13.7173 16.5565C13.544 18.556 13.8574 20.5678 14.6307 22.4198C15.404 24.2719 16.6142 25.9092 18.1578 27.1918C19.7015 28.4745 21.5328 29.3643 23.4952 29.7853C25.4575 30.2063 27.4926 30.1459 29.4266 29.6093C32.3829 28.7238 34.3055 26.0498 36.4822 24.0389C37.1419 23.4322 37.8157 22.843 38.5107 22.275C40.901 20.3239 43.5217 18.6735 46.3141 17.3608C46.8962 17.0892 47.4889 16.8352 48.078 16.5988C52.7771 14.7397 57.9559 13.8119 62.9865 14.3128C66.1344 14.5733 69.1782 15.5637 71.8765 17.2056C71.9295 17.2384 71.9912 17.2542 72.0534 17.2507C72.1156 17.2472 72.1752 17.2246 72.2241 17.1861C72.273 17.1476 72.3089 17.0949 72.3269 17.0353C72.3449 16.9757 72.3441 16.912 72.3246 16.8528C69.1319 9.23985 58.2981 2.03962 42.5676 0.480336C36.7299 -0.122893 30.8366 0.833958 25.4896 3.25318C22.6422 4.54018 20.0428 6.31692 17.8096 8.50254Z" fill="#FFD54F"/>
<path d="M73.1955 25.4465C72.5261 23.5512 71.2389 21.9359 69.5407 20.8604C66.5844 18.9801 62.8379 18.5709 59.4265 18.7084C57.819 18.7833 56.2202 18.9897 54.6464 19.3258C47.9436 20.7369 41.777 24.4905 37.1803 29.5564C33.9629 33.0842 31.4053 37.5398 31.3312 42.4364C31.1619 53.9934 41.276 55.9937 44.952 56.3394C45.0808 56.3522 45.2108 56.3326 45.3302 56.2826C45.4496 56.2325 45.5547 56.1535 45.6359 56.0527C45.7171 55.9518 45.7719 55.8324 45.7954 55.7051C45.8189 55.5777 45.8103 55.4466 45.7705 55.3234C45.0402 53.1468 45.8763 50.9595 47.3968 49.3438C50.0567 46.5216 53.7468 45.5726 57.3099 44.4261C64.0515 42.2565 71.8938 37.7233 73.5024 30.2373C73.8505 28.6431 73.7442 26.9833 73.1955 25.4465Z" fill="#5AC7DA"/>
<path d="M48.6775 56.8862C48.2964 58.1845 49.6511 59.7261 51.7043 60.3294C52.1631 60.4657 52.6372 60.5439 53.1154 60.5622C54.59 60.6222 55.8142 60.0613 56.107 59.07C56.4598 57.8917 55.3626 56.5229 53.6375 55.8244C53.4611 55.7538 53.2847 55.6833 53.0907 55.6268C51.034 55.0236 49.0585 55.588 48.6775 56.8862Z" fill="#5AC7DA"/>
<path d="M262.945 31.4369C262.945 30.7286 263.227 30.0494 263.728 29.5485C264.228 29.0477 264.908 28.7664 265.616 28.7664C266.324 28.7664 267.003 29.0477 267.504 29.5485C268.005 30.0494 268.286 30.7286 268.286 31.4369C268.286 32.1452 268.005 32.8244 267.504 33.3253C267.003 33.8261 266.324 34.1074 265.616 34.1074C264.908 34.1074 264.228 33.8261 263.728 33.3253C263.227 32.8244 262.945 32.1452 262.945 31.4369ZM267.979 31.4369C267.983 31.1248 267.925 30.8151 267.807 30.5258C267.69 30.2366 267.516 29.9736 267.296 29.7522C267.076 29.5309 266.814 29.3556 266.526 29.2366C266.237 29.1176 265.928 29.0573 265.616 29.0592C265.303 29.0605 264.994 29.1237 264.706 29.2449C264.417 29.3662 264.156 29.5432 263.936 29.7658C263.717 29.9883 263.543 30.2521 263.426 30.5419C263.308 30.8317 263.249 31.1419 263.252 31.4545C263.252 31.7649 263.313 32.0723 263.432 32.3591C263.551 32.6458 263.725 32.9064 263.945 33.1259C264.164 33.3454 264.425 33.5195 264.711 33.6382C264.998 33.757 265.305 33.8182 265.616 33.8182C265.926 33.8182 266.234 33.757 266.52 33.6382C266.807 33.5195 267.068 33.3454 267.287 33.1259C267.507 32.9064 267.681 32.6458 267.8 32.3591C267.918 32.0723 267.979 31.7649 267.979 31.4545V31.4369ZM264.512 30.3468C264.512 30.2532 264.549 30.1635 264.615 30.0974C264.681 30.0312 264.771 29.994 264.864 29.994H265.831C266.491 29.994 266.953 30.301 266.953 30.9148C266.961 31.0957 266.912 31.2746 266.812 31.426C266.713 31.5774 266.568 31.6935 266.399 31.7579L266.812 32.2659C266.844 32.297 266.87 32.335 266.885 32.3772C266.901 32.4193 266.907 32.4645 266.903 32.5093C266.904 32.5546 266.895 32.5995 266.877 32.6411C266.86 32.6827 266.833 32.7201 266.8 32.7507C266.767 32.7814 266.727 32.8046 266.684 32.819C266.641 32.8333 266.596 32.8384 266.551 32.8339C266.497 32.8328 266.445 32.8196 266.397 32.7951C266.349 32.7707 266.308 32.7357 266.276 32.6928L265.63 31.8955H265.185V32.4952C265.201 32.5478 265.204 32.6032 265.194 32.6571C265.184 32.711 265.162 32.7619 265.129 32.8057C265.096 32.8495 265.054 32.8851 265.005 32.9096C264.956 32.934 264.902 32.9468 264.847 32.9468C264.792 32.9468 264.738 32.934 264.689 32.9096C264.64 32.8851 264.597 32.8495 264.565 32.8057C264.532 32.7619 264.51 32.711 264.5 32.6571C264.49 32.6032 264.493 32.5478 264.508 32.4952L264.512 30.3468ZM265.771 31.3205C266.078 31.3205 266.247 31.1653 266.247 30.936C266.247 30.7066 266.064 30.5514 265.771 30.5514H265.189V31.3205H265.771Z" fill="#6682A8"/>
</svg>
