<svg xmlns="http://www.w3.org/2000/svg" viewBox="0 0 448.5 194.28"><defs><style>.cls-1{fill:#74af27;}.cls-1,.cls-3{fill-rule:evenodd;}.cls-2{fill:#ef7723;}.cls-3,.cls-4{fill:#003447;}.cls-5{fill:#797979;}</style></defs><g id="Layer_2" data-name="Layer 2"><g id="Layer_1-2" data-name="Layer 1"><path class="cls-1" d="M117.08,93.5a23.73,23.73,0,0,1,9.51,1.91,24.59,24.59,0,0,1,12.94,12.93,24.65,24.65,0,0,1,0,19,25,25,0,0,1-5.22,7.82,24.22,24.22,0,0,1-7.72,5.28,24.62,24.62,0,0,1-19,0,24.76,24.76,0,0,1-13.11-13.1,24,24,0,0,1-1.9-9.46V71.26h9.68V93.5Zm0,39.14a14.5,14.5,0,0,0,5.7-1.13,14.93,14.93,0,0,0,4.68-3.16,14.83,14.83,0,0,0,4.29-10.49,14.31,14.31,0,0,0-1.14-5.71,14.8,14.8,0,0,0-7.83-7.83,14.33,14.33,0,0,0-5.7-1.14H102.29v14.68a14.73,14.73,0,0,0,1.14,5.76,14.57,14.57,0,0,0,7.89,7.89A14.86,14.86,0,0,0,117.08,132.64Z"/><path class="cls-1" d="M168.7,93.29a23.68,23.68,0,0,1,9.51,1.9,24.56,24.56,0,0,1,12.94,12.94,23.68,23.68,0,0,1,1.9,9.51V142.1H168.7a23.79,23.79,0,0,1-9.46-1.9,24.67,24.67,0,0,1-13.11-13.1,24.62,24.62,0,0,1,0-19,24.27,24.27,0,0,1,5.28-7.72,25.2,25.2,0,0,1,7.83-5.22A23.79,23.79,0,0,1,168.7,93.29Zm14.67,39.14V117.64a14.2,14.2,0,0,0-1.14-5.71,14.82,14.82,0,0,0-7.82-7.83A14.38,14.38,0,0,0,168.7,103a14.73,14.73,0,0,0-10.49,4.3,14.47,14.47,0,0,0-3.15,4.67,14.21,14.21,0,0,0-1.15,5.71,14.64,14.64,0,0,0,1.15,5.77,14.37,14.37,0,0,0,3.15,4.72,14.6,14.6,0,0,0,4.72,3.16,14.81,14.81,0,0,0,5.77,1.14Z"/><path class="cls-1" d="M260.66,93.29a23.73,23.73,0,0,1,9.52,1.9,25.17,25.17,0,0,1,7.77,5.22,23.92,23.92,0,0,1,5.27,7.72,23.52,23.52,0,0,1,1.91,9.51V142.1h-9.68V117.64a14.38,14.38,0,0,0-1.14-5.71,14.74,14.74,0,0,0-13.65-9,14.33,14.33,0,0,0-5.7,1.14,14.8,14.8,0,0,0-7.83,7.83,14.38,14.38,0,0,0-1.14,5.71V142.1h-9.68V117.64a14.38,14.38,0,0,0-1.14-5.71,14.74,14.74,0,0,0-13.65-9,14.38,14.38,0,0,0-5.71,1.14,15,15,0,0,0-4.67,3.16,14.8,14.8,0,0,0-3.15,4.67,14.38,14.38,0,0,0-1.15,5.71V142.1h-9.67V117.64a23.68,23.68,0,0,1,1.9-9.51,24.43,24.43,0,0,1,13-12.94,23.86,23.86,0,0,1,9.46-1.9A23.5,23.5,0,0,1,232.67,96a24.71,24.71,0,0,1,8.43,7.23A24.42,24.42,0,0,1,249.58,96,23.54,23.54,0,0,1,260.66,93.29Z"/><path class="cls-1" d="M313,93.5a23.74,23.74,0,0,1,9.52,1.91,24.68,24.68,0,0,1,12.94,12.93,24.65,24.65,0,0,1,0,19,24.9,24.9,0,0,1-5.23,7.82,24.18,24.18,0,0,1-7.71,5.28,24.65,24.65,0,0,1-19,0,24.69,24.69,0,0,1-13.1-13.1,23.83,23.83,0,0,1-1.9-9.46V71.26h9.68V93.5Zm0,39.14a14.55,14.55,0,0,0,5.71-1.13,15,15,0,0,0,4.68-3.16,14.83,14.83,0,0,0,4.29-10.49,14.31,14.31,0,0,0-1.14-5.71,14.8,14.8,0,0,0-7.83-7.83,14.38,14.38,0,0,0-5.71-1.14H298.26v14.68A14.67,14.67,0,0,0,313,132.64Z"/><path class="cls-1" d="M340.31,117.86a23.9,23.9,0,0,1,1.9-9.52,24.67,24.67,0,0,1,5.22-7.71,24.36,24.36,0,0,1,7.78-5.22,24.51,24.51,0,0,1,19,0,25.11,25.11,0,0,1,7.77,5.22,24,24,0,0,1,5.27,7.71,24.53,24.53,0,0,1,0,19,24.35,24.35,0,0,1-5.27,7.82,24.77,24.77,0,0,1-7.77,5.28,24.28,24.28,0,0,1-26.75-5.28,25,25,0,0,1-5.22-7.82A24,24,0,0,1,340.31,117.86Zm9.57,0a14.83,14.83,0,0,0,4.29,10.49,14.91,14.91,0,0,0,21,0,14.83,14.83,0,0,0,4.29-10.49,14.31,14.31,0,0,0-1.14-5.71,14.83,14.83,0,0,0-27.29,0A14.31,14.31,0,0,0,349.88,117.86Z"/><path class="cls-1" d="M392.41,117.86a23.73,23.73,0,0,1,1.9-9.52,24.67,24.67,0,0,1,5.22-7.71,24.21,24.21,0,0,1,7.77-5.22,24.51,24.51,0,0,1,19,0,25.16,25.16,0,0,1,7.78,5.22,24.31,24.31,0,0,1,5.27,7.71,24.65,24.65,0,0,1,0,19,24.83,24.83,0,0,1-13.05,13.1,24.25,24.25,0,0,1-26.74-5.28,25,25,0,0,1-5.22-7.82A23.83,23.83,0,0,1,392.41,117.86Zm9.56,0a14.89,14.89,0,0,0,4.3,10.49,14.9,14.9,0,0,0,21,0,14.89,14.89,0,0,0,4.3-10.49,14.14,14.14,0,0,0-1.15-5.71,14.67,14.67,0,0,0-7.88-7.83,15.12,15.12,0,0,0-11.52,0,14.67,14.67,0,0,0-7.88,7.83A14.14,14.14,0,0,0,402,117.86Z"/><path class="cls-2" d="M85.09,103.22v14.4A14.39,14.39,0,0,1,84,123.27a15.53,15.53,0,0,1-1.64,2.94,14.52,14.52,0,0,1-6.27,5.1,14,14,0,0,1-5.59,1.12H56V118a14.53,14.53,0,0,1,1.12-5.65,14.83,14.83,0,0,1,1.65-3,14.56,14.56,0,0,1,6.26-5.1,14.14,14.14,0,0,1,5.6-1.12Z"/><path class="cls-3" d="M88.07,19.68V44a23.79,23.79,0,0,1-1.9,9.46,24.89,24.89,0,0,1-13,13.11,23.86,23.86,0,0,1-9.51,1.9,23.56,23.56,0,0,1-11.09-2.67A24.21,24.21,0,0,1,44,58.6a24.49,24.49,0,0,1-8.43,7.23A23.48,23.48,0,0,1,24.46,68.5,24,24,0,0,1,15,66.6,24.7,24.7,0,0,1,1.91,53.49,23.8,23.8,0,0,1,0,44V19.68H9.79V44a14.73,14.73,0,0,0,1.14,5.76,14.41,14.41,0,0,0,3.15,4.73,14.6,14.6,0,0,0,4.68,3.16,14.33,14.33,0,0,0,5.7,1.14,14.78,14.78,0,0,0,5.77-1.14,14.51,14.51,0,0,0,7.88-7.89A14.73,14.73,0,0,0,39.25,44V19.68h9.68V44a14.73,14.73,0,0,0,1.14,5.76,14.41,14.41,0,0,0,3.15,4.73,14.71,14.71,0,0,0,4.68,3.16,14.38,14.38,0,0,0,5.71,1.14,14.73,14.73,0,0,0,5.76-1.14,14.51,14.51,0,0,0,7.88-7.89A14.73,14.73,0,0,0,78.4,44V19.68Z"/><rect class="cls-4" x="106.54" width="9.68" height="68.39"/><path class="cls-3" d="M168.8,0V43.92a23.79,23.79,0,0,1-1.9,9.46,25.26,25.26,0,0,1-5.22,7.83A24.32,24.32,0,0,1,135,66.48a24.63,24.63,0,0,1-13.09-13.1,24.13,24.13,0,0,1,5.27-26.69A25,25,0,0,1,135,21.47a23.86,23.86,0,0,1,9.46-1.9h14.68V0ZM144.44,58.71a14.34,14.34,0,0,0,5.71-1.14,14.74,14.74,0,0,0,9-13.65V29.25H144.44a14.67,14.67,0,0,0-13.64,9,14.29,14.29,0,0,0-1.14,5.7A14.83,14.83,0,0,0,134,54.42a14.83,14.83,0,0,0,10.49,4.29Z"/><rect class="cls-4" x="92.47" y="19.75" width="9.67" height="48.64"/><path class="cls-4" d="M57.59,183.92a2.9,2.9,0,0,0,1.19,2.26,4.88,4.88,0,0,0,3,.81,5.49,5.49,0,0,0,3.28-.88,2.76,2.76,0,0,0,1.22-2.33,2.17,2.17,0,0,0-.74-1.72,8.7,8.7,0,0,0-3-1.26l-1.26-.33a16.26,16.26,0,0,1-3.3-1.11A4.1,4.1,0,0,1,56.5,178a3.46,3.46,0,0,1-.46-1.81,3.92,3.92,0,0,1,1.57-3.3,6.92,6.92,0,0,1,4.31-1.2,6.77,6.77,0,0,1,4.22,1.13A4,4,0,0,1,67.69,176h-2a2.83,2.83,0,0,0-1.07-2.15,4.58,4.58,0,0,0-2.75-.7,5,5,0,0,0-2.86.71,2.28,2.28,0,0,0-1,2c0,1.2,1.43,2.14,4.31,2.84l.83.2a10,10,0,0,1,4.14,1.81,3.7,3.7,0,0,1,1.09,2.85,4.41,4.41,0,0,1-1.75,3.68,7.58,7.58,0,0,1-4.77,1.37,7.49,7.49,0,0,1-4.55-1.21,4.38,4.38,0,0,1-1.71-3.48Z"/><path class="cls-4" d="M72.92,188.18V175.75c0-.52,0-1.06,0-1.61s-.05-1.24-.1-2.07h2l.1,2.73a8.38,8.38,0,0,1,2.44-2.21,5.62,5.62,0,0,1,2.76-.71,5.69,5.69,0,0,1,3.18.83,4.61,4.61,0,0,1,1.85,2.45,9.64,9.64,0,0,1,2.64-2.5,5.49,5.49,0,0,1,2.86-.78,5,5,0,0,1,4.07,1.56A7.32,7.32,0,0,1,96,178.26v9.92H94V178.5a6.14,6.14,0,0,0-.89-3.7,3.32,3.32,0,0,0-2.81-1.16,4.73,4.73,0,0,0-3.53,1.41,5,5,0,0,0-1.38,3.67v9.46h-2V178.5a6.14,6.14,0,0,0-.88-3.71,3.25,3.25,0,0,0-2.77-1.15,4.74,4.74,0,0,0-3.54,1.41,5,5,0,0,0-1.38,3.67v9.46Z"/><path class="cls-4" d="M111,188.18l-.16-2.69a5.91,5.91,0,0,1-2.25,2.27,6.34,6.34,0,0,1-3.17.78,5.47,5.47,0,0,1-3.85-1.3,4.64,4.64,0,0,1-1.42-3.56,4.47,4.47,0,0,1,2.06-3.87,9.76,9.76,0,0,1,5.65-1.42h2.79v-1.88a3,3,0,0,0-1-2.44,4.38,4.38,0,0,0-2.88-.84A4.54,4.54,0,0,0,104,174a2.78,2.78,0,0,0-1.14,2.13h-2a4.46,4.46,0,0,1,1.77-3.27,6.74,6.74,0,0,1,4.14-1.14,9.68,9.68,0,0,1,2.53.31,5,5,0,0,1,1.84.91,4,4,0,0,1,1.24,1.73,11.44,11.44,0,0,1,.36,3.45v7c0,.44,0,.91.06,1.42s.1,1,.19,1.63Zm-.35-8.27h-2.35a9,9,0,0,0-4.61,1,3.11,3.11,0,0,0-1.61,2.79,3,3,0,0,0,1,2.34,3.91,3.91,0,0,0,2.67.88,4.88,4.88,0,0,0,3.51-1.34,4.46,4.46,0,0,0,1.39-3.35Z"/><path class="cls-4" d="M118.09,188.18V176c0-.24,0-.6,0-1.07s-.06-1.41-.13-2.82h2l.13,2.48a4.61,4.61,0,0,1,1.78-1.94,5.46,5.46,0,0,1,2.71-.63h.38l.64.06v1.9l-.48,0h-.57a4.13,4.13,0,0,0-3.23,1.29,5.13,5.13,0,0,0-1.17,3.58v9.4Z"/><path class="cls-4" d="M131.8,184a3.63,3.63,0,0,0,.51,2.21,2,2,0,0,0,1.7.65,5,5,0,0,0,.84-.08,4.88,4.88,0,0,0,.88-.21v1.76l-1.23.22a7.27,7.27,0,0,1-.94.08,3.84,3.84,0,0,1-2.82-.94,3.88,3.88,0,0,1-.93-2.83V173.61h-3.15v-1.54h3.15V168.7l2-.86v4.23h3.62v1.54H131.8Z"/><path class="cls-4" d="M148.07,167.67V165h2.4v2.64Zm.19,20.51V172.07h2v16.11Z"/><path class="cls-4" d="M155.86,188.18V175.75c0-.52,0-1.06,0-1.61s-.05-1.24-.1-2.07h2l.09,2.73a8.62,8.62,0,0,1,2.48-2.19,5.7,5.7,0,0,1,2.76-.73,5.15,5.15,0,0,1,4.13,1.55,7.33,7.33,0,0,1,1.32,4.83v9.92h-2V178.5a6.18,6.18,0,0,0-.87-3.73,3.35,3.35,0,0,0-2.84-1.13,4.8,4.8,0,0,0-3.56,1.41,5,5,0,0,0-1.39,3.67v9.46Z"/><path class="cls-4" d="M175,188.18V173.61H171.9v-1.54H175v-3.85a3.55,3.55,0,0,1,.9-2.66,3.8,3.8,0,0,1,2.72-.87c.21,0,.49,0,.83.05l1.23.14v1.64h-.11l-1.27,0a2.75,2.75,0,0,0-1.84.45,2.51,2.51,0,0,0-.47,1.79v3.37h3.69v1.54H177v14.57Z"/><path class="cls-4" d="M183.63,180.13a8.88,8.88,0,0,1,2.06-6.11,7.22,7.22,0,0,1,10.64,0,10.08,10.08,0,0,1,0,12.21,7.22,7.22,0,0,1-10.64,0A8.85,8.85,0,0,1,183.63,180.13Zm2.08,0a7.63,7.63,0,0,0,1.42,4.89,5.09,5.09,0,0,0,7.74,0,9,9,0,0,0,0-9.77,5.09,5.09,0,0,0-7.75,0A7.63,7.63,0,0,0,185.71,180.13Z"/><path class="cls-4" d="M203.11,188.18V176c0-.24,0-.6,0-1.07s-.06-1.41-.13-2.82h2l.13,2.48a4.61,4.61,0,0,1,1.78-1.94,5.46,5.46,0,0,1,2.71-.63h.38l.64.06v1.9l-.47,0h-.58a4.13,4.13,0,0,0-3.23,1.29,5.13,5.13,0,0,0-1.17,3.58v9.4Z"/><path class="cls-4" d="M213.89,188.18V175.75c0-.52,0-1.06,0-1.61s-.05-1.24-.11-2.07h2l.1,2.73a8.38,8.38,0,0,1,2.44-2.21,5.62,5.62,0,0,1,2.76-.71,5.69,5.69,0,0,1,3.18.83,4.61,4.61,0,0,1,1.85,2.45,9.76,9.76,0,0,1,2.63-2.5,5.55,5.55,0,0,1,2.87-.78,5,5,0,0,1,4.07,1.56,7.32,7.32,0,0,1,1.32,4.82v9.92h-2V178.5a6.14,6.14,0,0,0-.88-3.7,3.32,3.32,0,0,0-2.81-1.16,4.72,4.72,0,0,0-3.53,1.41,5,5,0,0,0-1.38,3.67v9.46h-2V178.5a6.14,6.14,0,0,0-.88-3.71,3.25,3.25,0,0,0-2.77-1.15,4.74,4.74,0,0,0-3.54,1.41,5,5,0,0,0-1.38,3.67v9.46Z"/><path class="cls-4" d="M252,188.18l-.16-2.69a5.91,5.91,0,0,1-2.25,2.27,6.34,6.34,0,0,1-3.17.78,5.47,5.47,0,0,1-3.85-1.3,4.6,4.6,0,0,1-1.42-3.56,4.47,4.47,0,0,1,2.06-3.87,9.76,9.76,0,0,1,5.65-1.42h2.79v-1.88a3,3,0,0,0-1-2.44,4.38,4.38,0,0,0-2.88-.84,4.59,4.59,0,0,0-2.79.76,2.8,2.8,0,0,0-1.13,2.13h-2a4.46,4.46,0,0,1,1.77-3.27,6.73,6.73,0,0,1,4.13-1.14,9.7,9.7,0,0,1,2.54.31,5.11,5.11,0,0,1,1.84.91,4,4,0,0,1,1.24,1.73,11.53,11.53,0,0,1,.35,3.45v7c0,.44,0,.91.07,1.42s.1,1,.19,1.63Zm-.35-8.27h-2.35a9,9,0,0,0-4.61,1,3.11,3.11,0,0,0-1.61,2.79,3,3,0,0,0,1,2.34,4,4,0,0,0,2.68.88,4.88,4.88,0,0,0,3.51-1.34,4.46,4.46,0,0,0,1.39-3.35Z"/><path class="cls-4" d="M262,184a3.63,3.63,0,0,0,.51,2.21,2,2,0,0,0,1.7.65,5,5,0,0,0,.84-.08,5.09,5.09,0,0,0,.88-.21v1.76l-1.23.22a7.41,7.41,0,0,1-.95.08,3.83,3.83,0,0,1-2.81-.94,3.88,3.88,0,0,1-.93-2.83V173.61h-3.15v-1.54H260V168.7l2-.86v4.23h3.62v1.54H262Z"/><path class="cls-4" d="M269.37,167.67V165h2.4v2.64Zm.19,20.51V172.07h2v16.11Z"/><path class="cls-4" d="M276.17,180.13a8.93,8.93,0,0,1,2.06-6.11,7.22,7.22,0,0,1,10.64,0,10.08,10.08,0,0,1,0,12.21,7.22,7.22,0,0,1-10.64,0A8.9,8.9,0,0,1,276.17,180.13Zm2.08,0a7.69,7.69,0,0,0,1.42,4.89,5.09,5.09,0,0,0,7.74,0,9,9,0,0,0,0-9.77,5.09,5.09,0,0,0-7.75,0A7.69,7.69,0,0,0,278.25,180.13Z"/><path class="cls-4" d="M295.65,188.18V175.75c0-.52,0-1.06,0-1.61s-.05-1.24-.1-2.07h2l.1,2.73a8.59,8.59,0,0,1,2.47-2.19,5.7,5.7,0,0,1,2.76-.73,5.15,5.15,0,0,1,4.13,1.55,7.28,7.28,0,0,1,1.33,4.83v9.92h-2V178.5a6.18,6.18,0,0,0-.87-3.73,3.35,3.35,0,0,0-2.85-1.13,4.8,4.8,0,0,0-3.56,1.41,5,5,0,0,0-1.39,3.67v9.46Z"/><path class="cls-4" d="M323.52,183.92a2.86,2.86,0,0,0,1.18,2.26,4.9,4.9,0,0,0,3,.81,5.49,5.49,0,0,0,3.28-.88,2.76,2.76,0,0,0,1.22-2.33,2.17,2.17,0,0,0-.73-1.72,8.77,8.77,0,0,0-3.06-1.26l-1.25-.33a16.2,16.2,0,0,1-3.31-1.11,4.1,4.1,0,0,1-1.41-1.4,3.55,3.55,0,0,1-.46-1.81,3.94,3.94,0,0,1,1.57-3.3,6.94,6.94,0,0,1,4.31-1.2,6.77,6.77,0,0,1,4.22,1.13,4,4,0,0,1,1.55,3.24h-2a2.83,2.83,0,0,0-1.07-2.15,4.56,4.56,0,0,0-2.75-.7,5,5,0,0,0-2.86.71,2.28,2.28,0,0,0-1,2c0,1.2,1.44,2.14,4.31,2.84l.83.2a10.1,10.1,0,0,1,4.15,1.81,3.74,3.74,0,0,1,1.09,2.85,4.41,4.41,0,0,1-1.76,3.68,9.07,9.07,0,0,1-9.32.16,4.38,4.38,0,0,1-1.71-3.48Z"/><path class="cls-4" d="M343.06,188.12l-6.68-16.05h2.4l5.33,13.35,5.33-13.35h2.08l-6.61,16.3-2.24,5.91h-2.06Z"/><path class="cls-4" d="M355.61,183.92a2.87,2.87,0,0,0,1.19,2.26,4.88,4.88,0,0,0,3,.81,5.49,5.49,0,0,0,3.28-.88,2.76,2.76,0,0,0,1.22-2.33,2.17,2.17,0,0,0-.74-1.72,8.7,8.7,0,0,0-3.05-1.26l-1.26-.33a16.26,16.26,0,0,1-3.3-1.11,4.23,4.23,0,0,1-1.42-1.4,3.55,3.55,0,0,1-.45-1.81,3.92,3.92,0,0,1,1.57-3.3,6.92,6.92,0,0,1,4.31-1.2,6.79,6.79,0,0,1,4.22,1.13A4,4,0,0,1,365.7,176h-2a2.84,2.84,0,0,0-1.08-2.15,4.56,4.56,0,0,0-2.75-.7,5,5,0,0,0-2.86.71,2.29,2.29,0,0,0-1,2c0,1.2,1.43,2.14,4.31,2.84l.83.2a10,10,0,0,1,4.14,1.81,3.7,3.7,0,0,1,1.09,2.85,4.41,4.41,0,0,1-1.75,3.68,7.58,7.58,0,0,1-4.77,1.37,7.49,7.49,0,0,1-4.55-1.21,4.41,4.41,0,0,1-1.72-3.48Z"/><path class="cls-4" d="M373.87,184a3.63,3.63,0,0,0,.51,2.21,2,2,0,0,0,1.7.65,5,5,0,0,0,.84-.08,4.88,4.88,0,0,0,.88-.21v1.76l-1.23.22a7.27,7.27,0,0,1-.94.08,3.84,3.84,0,0,1-2.82-.94,3.88,3.88,0,0,1-.93-2.83V173.61h-3.15v-1.54h3.15V168.7l2-.86v4.23h3.62v1.54h-3.62Z"/><path class="cls-4" d="M394.92,183.07a6,6,0,0,1-2.2,4.05,7.46,7.46,0,0,1-4.76,1.45,6.85,6.85,0,0,1-5.38-2.25,8.85,8.85,0,0,1-2-6.07,9.11,9.11,0,0,1,2.05-6.22,6.84,6.84,0,0,1,5.42-2.35,6.54,6.54,0,0,1,5.17,2.2,8.6,8.6,0,0,1,1.93,5.89v.58H382.79a7.43,7.43,0,0,0,1.42,4.86,4.93,4.93,0,0,0,4,1.72,4.77,4.77,0,0,0,3.11-1.06,4.44,4.44,0,0,0,1.61-2.8Zm-12.07-4.26H393a6.36,6.36,0,0,0-1.49-4.07,4.59,4.59,0,0,0-3.57-1.48,4.49,4.49,0,0,0-3.45,1.42A7.25,7.25,0,0,0,382.85,178.81Z"/><path class="cls-4" d="M399.27,188.18V175.75c0-.52,0-1.06,0-1.61s-.05-1.24-.1-2.07h2l.09,2.73a8.28,8.28,0,0,1,2.45-2.21,5.56,5.56,0,0,1,2.76-.71,5.74,5.74,0,0,1,3.18.83,4.71,4.71,0,0,1,1.85,2.45,9.48,9.48,0,0,1,2.63-2.5,5.52,5.52,0,0,1,2.87-.78,5,5,0,0,1,4.06,1.56,7.26,7.26,0,0,1,1.33,4.82v9.92h-2V178.5a6.14,6.14,0,0,0-.89-3.7,3.32,3.32,0,0,0-2.81-1.16,4.73,4.73,0,0,0-3.53,1.41,5,5,0,0,0-1.38,3.67v9.46h-1.95V178.5a6.21,6.21,0,0,0-.88-3.71,3.27,3.27,0,0,0-2.78-1.15,4.74,4.74,0,0,0-3.54,1.41,5,5,0,0,0-1.38,3.67v9.46Z"/><path class="cls-4" d="M428.72,183.92a2.89,2.89,0,0,0,1.18,2.26,4.91,4.91,0,0,0,3,.81,5.44,5.44,0,0,0,3.27-.88,2.74,2.74,0,0,0,1.23-2.33,2.17,2.17,0,0,0-.74-1.72,8.68,8.68,0,0,0-3.06-1.26l-1.25-.33a16.44,16.44,0,0,1-3.31-1.11,4.28,4.28,0,0,1-1.41-1.4,3.55,3.55,0,0,1-.45-1.81,3.92,3.92,0,0,1,1.57-3.3,6.92,6.92,0,0,1,4.31-1.2,6.81,6.81,0,0,1,4.22,1.13,4,4,0,0,1,1.54,3.24h-2a2.84,2.84,0,0,0-1.08-2.15,4.56,4.56,0,0,0-2.75-.7,5,5,0,0,0-2.86.71,2.29,2.29,0,0,0-1,2c0,1.2,1.43,2.14,4.31,2.84l.83.2a10.11,10.11,0,0,1,4.14,1.81,3.7,3.7,0,0,1,1.09,2.85,4.41,4.41,0,0,1-1.75,3.68,7.6,7.6,0,0,1-4.77,1.37,7.49,7.49,0,0,1-4.55-1.21,4.41,4.41,0,0,1-1.72-3.48Z"/><path class="cls-5" d="M444.94,139.1a3.54,3.54,0,1,1,0,7.08,3.54,3.54,0,1,1,0-7.08Zm-.05.62a2.91,2.91,0,0,0,.05,5.82,2.77,2.77,0,0,0,2.76-2.9,2.8,2.8,0,0,0-2.79-2.92Zm-.62,4.85h-.68v-3.7a6.71,6.71,0,0,1,1.28-.11,1.8,1.8,0,0,1,1.17.29.94.94,0,0,1,.38.77,1,1,0,0,1-.73.89v0a1.11,1.11,0,0,1,.62.89,3.21,3.21,0,0,0,.26.93h-.7a2.46,2.46,0,0,1-.29-1c-.09-.4-.33-.57-.87-.57h-.44Zm0-2.09h.47c.51,0,.95-.15.95-.59s-.22-.6-.89-.6a2.89,2.89,0,0,0-.53,0Z"/></g></g></svg>