<svg width="354" height="110" viewBox="0 0 354 110" fill="none" xmlns="http://www.w3.org/2000/svg">
<path d="M138.776 42.537C138.776 52.796 132.229 59.246 122.776 59.246C117.124 59.246 112.876 58.366 108.899 56.432V16.801H118.077V30.401C119.15 29.3671 120.423 28.5633 121.818 28.039C123.213 27.5147 124.7 27.2809 126.189 27.352C134.135 27.352 138.78 33.332 138.78 42.537H138.776ZM129.38 43.358C129.38 37.965 126.58 35.913 123.394 35.913C122.278 35.8855 121.178 36.1877 120.233 36.782C119.287 37.3763 118.538 38.2361 118.079 39.254V50.042C119.533 50.7106 121.122 51.0317 122.722 50.98C126.522 50.98 129.38 48.518 129.38 43.359" fill="#092464"/>
<path d="M151.181 16.0181H142.004V57.6421H151.181V16.0181Z" fill="#092464"/>
<path d="M184.502 28.175V58.426H177.059L176.164 54.263C174.597 57.018 171.576 59.246 166.596 59.246C160.161 59.246 156.635 54.9071 156.635 48.0461V28.175H165.756V45.821C165.756 49.573 167.656 51.039 170.345 51.039C171.454 51.1172 172.555 50.8097 173.463 50.1685C174.371 49.5273 175.029 48.592 175.325 47.521V28.175H184.502Z" fill="#092464"/>
<path d="M217.231 41.775C217.231 43.3 217.175 44.475 217.12 45.821H197.866C198.705 49.69 201.615 51.566 206.148 51.566C209.254 51.5523 212.316 50.8307 215.101 49.456L215.325 49.573V56.96C211.928 58.5983 208.182 59.383 204.413 59.246C196.748 59.246 188.413 55.083 188.413 43.3C188.413 33.626 194.68 27.354 203.297 27.354C211.69 27.354 217.062 32.454 217.229 41.775H217.231ZM208.388 40.426C208.053 36.674 206.262 35.033 203.297 35.033C200.497 35.033 198.485 36.791 197.813 40.426H208.388Z" fill="#092464"/>
<path d="M251.168 42.6549C251.168 52.7389 244.733 59.2459 236.34 59.2459C234.313 59.2972 232.301 58.8758 230.465 58.0149V68.0399H221.288V28.1749H228.729L229.457 31.5749C230.562 30.2165 231.964 29.1297 233.555 28.3982C235.146 27.6666 236.884 27.3097 238.634 27.3549C246.579 27.3549 251.168 33.6279 251.168 42.6549ZM241.768 43.1829C241.768 37.9059 239.081 35.9129 235.725 35.9129C234.618 35.8981 233.532 36.2063 232.597 36.7997C231.663 37.3931 230.922 38.2459 230.465 39.2539V49.9839C231.932 50.6798 233.542 51.0223 235.165 50.9839C239.138 50.9839 241.765 48.2289 241.765 43.1839" fill="#092464"/>
<path d="M274.25 27.94V36.557L274.026 36.674C273.096 36.3313 272.107 36.172 271.116 36.205C267.927 36.205 264.681 38.14 264.457 43.768V58.426H255.282V28.174H262.724L263.619 32.454C264.255 30.9882 265.302 29.7377 266.633 28.8532C267.963 27.9687 269.521 27.488 271.119 27.469C272.182 27.4521 273.241 27.6109 274.252 27.939" fill="#092464"/>
<path d="M286.588 28.175H277.411V58.426H286.588V28.175Z" fill="#092464"/>
<path d="M286.588 16.0181H277.411V24.0111H286.588V16.0181Z" fill="#092464"/>
<path d="M320.804 39.958V58.424H311.683V42.597C311.683 38.023 309.389 36.617 306.647 36.617C305.466 36.6072 304.316 36.9952 303.382 37.7184C302.449 38.4416 301.785 39.458 301.499 40.604V58.424H292.322V28.175H299.765L300.66 32.22C301.644 30.6639 303.02 29.3947 304.651 28.5405C306.282 27.6864 308.109 27.2774 309.948 27.355C316.383 27.355 320.804 32.104 320.804 39.955" fill="#092464"/>
<path d="M336.892 35.7409V45.4109C336.892 48.4019 337.899 50.2769 340.92 50.2769C342.186 50.2829 343.435 49.9808 344.558 49.3969L344.725 49.5139V57.6039C342.659 58.4882 340.424 58.9084 338.178 58.8349C331.687 58.8349 327.714 54.9069 327.714 47.4019V35.7409H322.96V28.1749H327.716V20.9049L336.725 19.0879L336.892 19.2049V28.1749H344.726V35.7409H336.892Z" fill="#092464"/>
<path d="M116.198 72.6159V75.1479L116.109 75.1789C115.612 74.9468 115.066 74.8407 114.518 74.8699C112.868 74.8699 111.689 75.7329 111.689 78.1109V78.4199H115.289V80.7349H111.689V94.3509H108.889V80.7359H106.798V78.4209H108.889C108.889 74.2209 111.189 72.2769 114.105 72.2769C114.819 72.2366 115.534 72.3522 116.199 72.6159" fill="#092464"/>
<path d="M115.784 86.3559C115.784 81.1679 119.437 78.0559 123.684 78.0559C128.074 78.0559 131.64 80.8959 131.64 86.3909C131.64 91.6089 127.987 94.7589 123.684 94.7589C119.352 94.7589 115.784 91.8879 115.784 86.3589V86.3559ZM128.784 86.3589C128.784 82.8079 126.721 80.5849 123.684 80.5849C120.707 80.5849 118.645 82.8399 118.645 86.3589C118.645 89.9399 120.678 92.2239 123.684 92.2239C126.719 92.2239 128.784 89.9399 128.784 86.3589Z" fill="#092464"/>
<path d="M142.894 78.36V80.984L142.806 81.014C142.3 80.816 141.759 80.7221 141.215 80.738C139.475 80.738 137.679 81.509 137.206 84.967V94.352H134.406V78.421H136.675L136.941 80.552C137.357 79.7864 137.976 79.1505 138.73 78.7144C139.484 78.2784 140.343 78.0592 141.214 78.081C141.787 78.0656 142.357 78.1603 142.893 78.36" fill="#092464"/>
<path d="M153.617 72.4309H150.817V94.3519H153.617V72.4309Z" fill="#092464"/>
<path d="M170.56 85.77C170.56 86.232 170.56 86.633 170.53 87.07H159.243C159.264 87.7851 159.431 88.4883 159.731 89.1374C160.032 89.7865 160.461 90.368 160.993 90.8469C161.524 91.3258 162.147 91.6921 162.824 91.9238C163.501 92.1555 164.217 92.2477 164.931 92.195C166.555 92.1919 168.154 91.789 169.586 91.022L169.675 91.053V93.461C168.08 94.3703 166.264 94.8202 164.429 94.761C160.362 94.761 156.384 92.291 156.384 86.361C156.384 81.389 159.625 78.061 163.751 78.061C167.994 78.061 170.529 80.871 170.559 85.78L170.56 85.77ZM159.359 84.73H167.816C167.492 82.075 166.047 80.53 163.749 80.53C161.539 80.53 159.83 82.012 159.359 84.73Z" fill="#092464"/>
<path d="M187.059 91.5421V94.0421C186.436 94.3808 185.734 94.5511 185.025 94.5361C184.685 94.5776 184.339 94.5463 184.012 94.4442C183.685 94.342 183.383 94.1714 183.126 93.9437C182.87 93.716 182.665 93.4363 182.525 93.1233C182.385 92.8102 182.313 92.471 182.314 92.1281C181.698 92.9631 180.887 93.6355 179.953 94.0873C179.019 94.539 177.988 94.7565 176.951 94.7211C174.123 94.7211 172.001 92.9621 172.001 90.0901C172.001 86.3541 175.183 84.9641 178.101 84.9641C179.452 84.9434 180.798 85.1528 182.079 85.5831V84.9341C182.079 81.8471 180.369 80.5191 177.687 80.5191C176.221 80.4625 174.769 80.8265 173.503 81.5681L173.414 81.5381V79.1911C174.863 78.3884 176.502 77.9937 178.158 78.0491C182.638 78.0491 184.847 80.4871 184.847 84.8101V90.3371C184.847 91.4171 185.231 91.8491 185.967 91.8491C186.148 91.861 186.329 91.8372 186.501 91.7791C186.672 91.7209 186.831 91.6295 186.967 91.5101L187.059 91.5421ZM182.079 89.6601V87.8381C180.988 87.424 179.827 87.225 178.66 87.2521C176.538 87.2521 174.8 88.0521 174.8 89.9071C174.795 90.2484 174.863 90.5868 175 90.8996C175.137 91.2124 175.339 91.4922 175.593 91.7203C175.847 91.9484 176.147 92.1193 176.473 92.2218C176.798 92.3242 177.142 92.3557 177.481 92.3141C178.415 92.3224 179.334 92.0806 180.143 91.6139C180.952 91.1473 181.621 90.4726 182.081 89.6601" fill="#092464"/>
<path d="M197.518 78.36V80.984L197.43 81.014C196.923 80.816 196.382 80.7221 195.838 80.738C194.1 80.738 192.303 81.509 191.831 84.967V94.352H189.031V78.421H191.3L191.566 80.552C191.982 79.7865 192.6 79.1507 193.354 78.7147C194.108 78.2787 194.968 78.0593 195.838 78.081C196.411 78.0656 196.981 78.1603 197.518 78.36Z" fill="#092464"/>
<path d="M213.223 84.967V94.352H210.454V85.738C210.454 82.126 208.654 80.86 206.445 80.86C205.518 80.8476 204.612 81.1398 203.866 81.6918C203.121 82.2439 202.578 83.0252 202.319 83.916V94.352H199.519V78.421H201.788L202.088 80.582C202.659 79.7609 203.428 79.098 204.325 78.6553C205.222 78.2127 206.216 78.0048 207.215 78.051C210.574 78.051 213.226 80.242 213.226 84.967" fill="#092464"/>
<path d="M219.557 78.4209H216.757V94.3519H219.557V78.4209Z" fill="#092464"/>
<path d="M219.557 73.3818H216.757V75.7438H219.557V73.3818Z" fill="#092464"/>
<path d="M237.001 84.9669V94.3519H234.231V85.7379C234.231 82.1259 232.431 80.8599 230.224 80.8599C229.296 80.8475 228.391 81.1397 227.645 81.6917C226.9 82.2438 226.356 83.0251 226.098 83.9159V94.3519H223.298V78.4209H225.567L225.862 80.5819C226.433 79.7611 227.203 79.0984 228.099 78.6558C228.996 78.2131 229.99 78.005 230.989 78.0509C234.349 78.0509 237.001 80.2419 237.001 84.9669Z" fill="#092464"/>
<path d="M253.883 80.582H250.759C251.247 80.9398 251.641 81.4101 251.908 81.953C252.175 82.4959 252.307 83.0952 252.292 83.7C252.292 86.694 249.64 88.671 246.133 88.671C245.242 88.6852 244.356 88.55 243.51 88.271C243.3 88.5103 243.185 88.8179 243.186 89.136C243.186 90.062 244.041 90.278 247.286 90.557C251.737 90.957 253.799 91.885 253.799 94.88C253.799 98.369 251.059 99.635 246.284 99.635C242.453 99.635 239.359 98.555 239.359 95.745C239.41 94.9763 239.663 94.2345 240.092 93.5947C240.521 92.9549 241.112 92.4397 241.804 92.101C241.415 91.8883 241.095 91.5692 240.882 91.1811C240.668 90.7931 240.569 90.3522 240.597 89.91C240.621 89.4308 240.743 88.9615 240.956 88.5315C241.168 88.1014 241.467 87.7197 241.834 87.41C241.242 86.9655 240.765 86.3864 240.442 85.7206C240.119 85.0549 239.96 84.3218 239.977 83.582C239.977 80.339 242.6 78.426 246.165 78.426H253.886L253.883 80.582ZM246.928 93.149C245.897 93.026 244.896 92.932 244.042 92.778C242.863 93.365 241.948 94.199 241.948 95.31C241.948 96.854 243.923 97.41 246.634 97.41C249.757 97.41 251.202 96.638 251.202 95.279C251.202 93.52 249.286 93.395 246.928 93.149ZM249.64 83.578C249.64 81.663 248.195 80.644 246.133 80.644C244.133 80.644 242.686 81.663 242.686 83.578C242.686 85.46 244.129 86.449 246.133 86.449C248.195 86.449 249.64 85.46 249.64 83.578Z" fill="#092464"/>
<path d="M12.7692 56.5261C12.7367 56.4648 12.6881 56.4135 12.6287 56.3777C12.5692 56.3419 12.5011 56.323 12.4317 56.323C12.3623 56.323 12.2942 56.3419 12.2348 56.3777C12.1753 56.4135 12.1267 56.4648 12.0942 56.5261C9.62721 61.1961 8.26221 72.2991 8.26221 78.1891C8.26221 84.4891 9.80022 87.2021 11.9712 90.9481C12.0178 91.0288 12.0848 91.0959 12.1656 91.1426C12.2463 91.1892 12.338 91.2138 12.4312 91.2138C12.5245 91.2138 12.6161 91.1892 12.6968 91.1426C12.7776 91.0959 12.8446 91.0288 12.8912 90.9481C15.0622 87.2021 16.6002 84.4851 16.6002 78.1891C16.6002 72.2991 15.2362 61.1961 12.7692 56.5261ZM12.4312 91.0051C12.3758 91.0055 12.3211 90.9921 12.2722 90.9661C12.3209 90.9924 12.3754 91.0062 12.4307 91.0062C12.4861 91.0062 12.5406 90.9924 12.5892 90.9661C12.5407 90.9921 12.4863 91.0055 12.4312 91.0051Z" fill="#A5BB09"/>
<path d="M48.5779 92.338C43.9029 89.874 32.7869 88.512 26.8909 88.512C20.5909 88.512 17.8649 90.046 14.1139 92.212C14.0329 92.2589 13.9657 92.3263 13.919 92.4074C13.8723 92.4884 13.8477 92.5804 13.8477 92.674C13.8477 92.7675 13.8723 92.8595 13.919 92.9406C13.9657 93.0217 14.0329 93.089 14.1139 93.136C17.8649 95.305 20.5889 96.836 26.8909 96.836C32.7909 96.836 43.9039 95.474 48.5779 93.01C48.6393 92.9772 48.6908 92.9284 48.7267 92.8687C48.7625 92.809 48.7815 92.7406 48.7815 92.671C48.7815 92.6013 48.7625 92.533 48.7267 92.4732C48.6908 92.4135 48.6393 92.3647 48.5779 92.332" fill="#A5BB09"/>
<path d="M22.3999 81.477C22.481 81.4778 22.5609 81.4569 22.6312 81.4165C22.7015 81.376 22.7598 81.3175 22.7999 81.247C24.6253 78.4618 25.5472 75.1814 25.4399 71.853C25.4399 67.813 24.5049 60.053 22.8119 56.58C22.7747 56.5026 22.7163 56.4372 22.6436 56.3915C22.5709 56.3458 22.4868 56.3215 22.4009 56.3215C22.315 56.3215 22.2308 56.3458 22.1581 56.3915C22.0854 56.4372 22.0271 56.5026 21.9899 56.58C20.2989 60.049 19.3639 67.813 19.3639 71.853C19.2566 75.1814 20.1785 78.4618 22.0039 81.247C22.044 81.3175 22.1022 81.376 22.1726 81.4165C22.2429 81.4569 22.3228 81.4778 22.4039 81.477" fill="#A5BB09"/>
<path d="M23.5982 82.7179C23.5975 82.799 23.6184 82.8788 23.6588 82.9491C23.6993 83.0194 23.7577 83.0777 23.8282 83.1179C26.6183 84.9411 29.9018 85.8618 33.2332 85.7549C37.2792 85.7549 45.0512 84.8209 48.5242 83.1309C48.6015 83.0933 48.6667 83.0348 48.7123 82.9619C48.7579 82.8891 48.7821 82.8049 48.7821 82.7189C48.7821 82.6329 48.7579 82.5487 48.7123 82.4758C48.6667 82.403 48.6015 82.3444 48.5242 82.3069C45.0502 80.6179 37.2782 79.6839 33.2332 79.6839C29.9018 79.577 26.6183 80.4976 23.8282 82.3209C23.7575 82.3608 23.6989 82.419 23.6584 82.4894C23.618 82.5598 23.5972 82.6397 23.5982 82.7209V82.7179ZM36.4272 80.0239L36.5002 80.0299L36.4272 80.0239ZM48.5392 82.8449C48.5625 82.8059 48.5749 82.7613 48.5752 82.7159C48.5749 82.7613 48.5625 82.8059 48.5392 82.8449Z" fill="#A5BB09"/>
<path d="M30.4501 73.8179C30.5205 73.8177 30.59 73.8008 30.6526 73.7684C30.7152 73.7361 30.7691 73.6893 30.8101 73.6319C32.087 72.1336 32.8315 70.2543 32.9271 68.2879C32.7943 64.3185 32.1018 60.3878 30.8701 56.6119C30.8379 56.5269 30.7806 56.4536 30.7057 56.4019C30.6309 56.3502 30.542 56.3225 30.4511 56.3225C30.3601 56.3225 30.2713 56.3502 30.1965 56.4019C30.1216 56.4536 30.0643 56.5269 30.0321 56.6119C28.8 60.389 28.1075 64.3212 27.9751 68.2919C28.0703 70.2584 28.8148 72.1378 30.0921 73.6359C30.1327 73.6934 30.1865 73.7403 30.249 73.7726C30.3114 73.805 30.3807 73.8219 30.4511 73.8219" fill="#A5BB09"/>
<path d="M36.177 69.3129C36.4803 69.3576 36.7865 69.3793 37.093 69.3779C37.9926 69.3846 38.8843 69.2105 39.7154 68.8661C40.5464 68.5217 41.2998 68.0139 41.931 67.3729C44.7915 64.3259 47.0999 60.8044 48.753 56.9659C48.7791 56.8939 48.7873 56.8166 48.777 56.7407C48.7668 56.6648 48.7383 56.5925 48.694 56.5299C48.6344 56.4431 48.5477 56.3785 48.4475 56.3461C48.3473 56.3137 48.2392 56.3154 48.14 56.3509C44.2992 58.0014 40.7742 60.3063 37.722 63.1629C36.9728 63.9042 36.407 64.81 36.0695 65.8084C35.732 66.8068 35.6322 67.8702 35.778 68.9139C35.793 69.0147 35.8399 69.1079 35.912 69.18C35.984 69.252 36.0773 69.299 36.178 69.3139L36.177 69.3129ZM48.515 56.6609L48.503 56.6459L48.515 56.6609ZM48.415 56.5729H48.425H48.415ZM48.315 56.5469H48.305H48.315Z" fill="#A5BB09"/>
<path d="M36.877 77.21C40.8283 77.093 44.7416 76.4017 48.494 75.158C48.5784 75.1243 48.6508 75.066 48.7018 74.9906C48.7528 74.9153 48.7801 74.8265 48.7801 74.7355C48.7801 74.6446 48.7528 74.5557 48.7018 74.4804C48.6508 74.4051 48.5784 74.3468 48.494 74.313C44.7418 73.0684 40.8284 72.3768 36.877 72.26C34.9207 72.3562 33.052 73.1003 31.5649 74.375C31.5076 74.416 31.4608 74.4701 31.4285 74.5328C31.3963 74.5955 31.3794 74.665 31.3794 74.7355C31.3794 74.806 31.3963 74.8755 31.4285 74.9382C31.4608 75.0009 31.5076 75.055 31.5649 75.096C33.052 76.3708 34.9207 77.1148 36.877 77.211" fill="#A5BB09"/>
<path d="M85.31 60.7321C84.129 60.4141 82.959 60.0591 81.778 59.7371C81.629 59.7031 81.492 59.6294 81.3816 59.5237C81.2712 59.4181 81.1915 59.2844 81.151 59.1371C80.806 58.2181 80.431 57.3071 80.019 56.4151C79.9861 56.3441 79.959 56.2705 79.938 56.1951H55.795C55.7781 56.2538 55.7571 56.3113 55.732 56.3671C55.323 57.2771 54.932 58.1951 54.578 59.1261C54.5392 59.2732 54.4614 59.4072 54.3528 59.5139C54.2442 59.6205 54.1089 59.6959 53.961 59.7321C52.781 60.0531 51.61 60.4091 50.428 60.7221C50.145 60.7971 50.084 60.9221 50.087 61.1871C50.0984 62.4291 50.0984 63.6704 50.087 64.9111C50.087 65.1741 50.172 65.2721 50.422 65.3391C51.616 65.6601 52.802 66.0121 53.995 66.3391C54.1296 66.3728 54.2531 66.441 54.3534 66.5369C54.4537 66.6328 54.5273 66.7531 54.567 66.8861C54.929 67.8307 55.3167 68.7641 55.73 69.6861C55.8007 69.8133 55.8359 69.9571 55.8321 70.1026C55.8282 70.248 55.7854 70.3898 55.708 70.5131C55.108 71.5631 54.535 72.6311 53.932 73.6811C53.894 73.7248 53.8655 73.776 53.8483 73.8314C53.8312 73.8868 53.8258 73.9451 53.8325 74.0027C53.8392 74.0603 53.8578 74.1159 53.8872 74.1659C53.9165 74.2159 53.956 74.2592 54.003 74.2931C54.884 75.1461 55.751 76.0161 56.608 76.8931C56.6393 76.9374 56.6793 76.9749 56.7255 77.0033C56.7717 77.0318 56.8233 77.0505 56.877 77.0583C56.9307 77.0662 56.9854 77.063 57.0379 77.0491C57.0903 77.0351 57.1393 77.0106 57.182 76.9771C58.245 76.3691 59.324 75.7891 60.382 75.1771C60.5059 75.1005 60.6481 75.0589 60.7937 75.0566C60.9393 75.0543 61.0828 75.0914 61.209 75.1641C62.104 75.5711 63.009 75.9641 63.928 76.3061C64.0819 76.3444 64.2224 76.4241 64.3341 76.5365C64.4459 76.649 64.5247 76.79 64.562 76.9441C64.879 78.1241 65.235 79.2951 65.553 80.4761C65.558 80.527 65.5735 80.5764 65.5985 80.621C65.6236 80.6656 65.6576 80.7045 65.6986 80.7353C65.7395 80.7661 65.7863 80.788 65.8362 80.7996C65.886 80.8113 65.9377 80.8125 65.988 80.8031C67.2287 80.7904 68.47 80.7904 69.712 80.8031C69.7653 80.813 69.82 80.8118 69.8728 80.7993C69.9255 80.7868 69.9751 80.7634 70.0182 80.7306C70.0613 80.6979 70.0972 80.6564 70.1233 80.6089C70.1495 80.5615 70.1654 80.5091 70.17 80.4551C70.485 79.2741 70.838 78.1011 71.161 76.9221C71.1946 76.7805 71.2651 76.6503 71.3654 76.5449C71.4657 76.4395 71.5923 76.3626 71.732 76.3221C72.663 75.9661 73.585 75.5861 74.493 75.1751C74.6255 75.0996 74.7759 75.0616 74.9283 75.0651C75.0807 75.0687 75.2292 75.1136 75.358 75.1951C76.42 75.8041 77.499 76.3871 78.566 76.9891C78.6023 77.0202 78.6446 77.0436 78.6903 77.0577C78.736 77.0718 78.7841 77.0764 78.8317 77.0712C78.8792 77.0659 78.9252 77.0509 78.9667 77.0272C79.0082 77.0034 79.0444 76.9714 79.073 76.9331C79.9504 76.0337 80.8384 75.1461 81.737 74.2701C81.7807 74.2376 81.8172 74.1964 81.8441 74.1492C81.8711 74.1019 81.888 74.0495 81.8937 73.9954C81.8994 73.9413 81.8939 73.8866 81.8774 73.8347C81.861 73.7829 81.8339 73.735 81.798 73.6941C81.198 72.6401 80.626 71.5751 80.024 70.5251C79.9436 70.3957 79.8997 70.247 79.8971 70.0946C79.8945 69.9423 79.9331 69.7922 80.009 69.6601C80.42 68.7511 80.797 67.8271 81.152 66.8971C81.194 66.7576 81.2722 66.6317 81.3786 66.5323C81.4851 66.4329 81.616 66.3634 81.758 66.3311C82.952 66.0061 84.137 65.6531 85.331 65.3311C85.3787 65.3259 85.4247 65.311 85.4663 65.2873C85.5079 65.2636 85.5441 65.2315 85.5727 65.1931C85.6014 65.1547 85.6218 65.1108 85.6327 65.0642C85.6436 65.0175 85.6447 64.9692 85.636 64.9221C85.6254 63.6674 85.6254 62.4117 85.636 61.1551C85.6451 61.1048 85.6436 61.0532 85.6316 61.0035C85.6196 60.9538 85.5974 60.9072 85.5663 60.8666C85.5352 60.8261 85.496 60.7924 85.4512 60.7679C85.4064 60.7433 85.357 60.7284 85.306 60.7241L85.31 60.7321ZM67.871 67.1991C67.0456 67.2011 66.2382 66.9581 65.5509 66.5009C64.8637 66.0438 64.3275 65.393 64.0103 64.631C63.6931 63.8689 63.6091 63.0299 63.769 62.2201C63.9289 61.4104 64.3255 60.6662 64.9085 60.0819C65.4915 59.4976 66.2348 59.0995 67.0442 58.9378C67.8537 58.7762 68.6929 58.8584 69.4556 59.1739C70.2183 59.4895 70.8702 60.0242 71.3289 60.7105C71.7875 61.3967 72.0322 62.2037 72.032 63.0291C72.0331 64.1338 71.5953 65.1937 70.815 65.9757C70.0347 66.7577 68.9757 67.1977 67.871 67.1991Z" fill="#FF7800"/>
<path d="M33.799 35.394C31.45 42.752 25.885 46.729 18.531 46.518C16.647 46.4854 14.788 46.0808 13.0609 45.3274C11.3338 44.574 9.77259 43.4867 8.46705 42.128C8.4486 42.1071 8.42417 42.0923 8.39707 42.0858C8.36996 42.0792 8.34147 42.0811 8.3155 42.0913C8.28952 42.1014 8.2673 42.1193 8.25184 42.1425C8.23637 42.1657 8.22841 42.1931 8.22904 42.221C8.29404 44.352 9.72103 49.621 14.697 51.821C22.114 55.091 28.929 51.961 32.197 45.67C33.895 42.5304 34.4711 38.9054 33.83 35.394C33.823 35.37 33.804 35.386 33.799 35.403" fill="#2B85BB"/>
<path d="M48.7091 35.5719C48.4898 31.9938 47.5311 28.5 45.8934 25.3112C44.2556 22.1223 41.9745 19.3077 39.1941 17.0449C37.0425 15.2705 34.5325 13.9827 31.8362 13.27C29.14 12.5573 26.3214 12.4365 23.5741 12.9159C14.7071 14.5159 11.0691 19.5819 9.43312 23.4899C8.61526 25.4691 8.20703 27.5935 8.23311 29.7349C8.23311 29.7839 8.23311 29.8349 8.23311 29.8809C8.2338 30.5123 8.28732 31.1425 8.39311 31.7649C8.40211 31.8179 8.40809 31.8649 8.41209 31.8879C8.71948 33.585 9.41345 35.1886 10.4402 36.5745C11.467 37.9603 12.7991 39.0911 14.3331 39.8794C15.8672 40.6676 17.5622 41.0921 19.2867 41.12C21.0113 41.1478 22.7191 40.7783 24.2778 40.04C25.8366 39.3017 27.2044 38.2145 28.2754 36.8626C29.3464 35.5107 30.0919 33.9303 30.4539 32.244C30.8159 30.5577 30.7849 28.8106 30.3632 27.1382C29.9415 25.4658 29.1405 23.9129 28.0221 22.5999C29.8631 22.8534 31.5958 23.6196 33.0221 24.8109C34.689 26.2005 36.0594 27.9111 37.0519 29.841C38.0443 31.7709 38.6385 33.8807 38.7991 36.0449C38.9353 39.1797 38.4346 42.3095 37.3272 45.2453C36.2198 48.1812 34.5287 50.862 32.3561 53.1259H44.5821C47.5743 47.7757 49.0042 41.6929 48.7091 35.5699" fill="#2B85BB"/>
<path d="M70.4171 96.8429C70.2338 96.221 70.1982 95.5649 70.3128 94.9268C70.4275 94.2887 70.6894 93.6861 71.0777 93.1669C71.4659 92.6477 71.9699 92.2262 72.5496 91.9359C73.1293 91.6455 73.7687 91.4943 74.4171 91.4943C75.0654 91.4943 75.7048 91.6455 76.2845 91.9359C76.8642 92.2262 77.3682 92.6477 77.7565 93.1669C78.1448 93.6861 78.4066 94.2887 78.5213 94.9268C78.636 95.5649 78.6003 96.221 78.4171 96.8429H92.1931C92.1871 95.8259 92.1841 94.8099 92.1931 93.7929C92.1931 93.5279 92.1081 93.4319 91.8581 93.3649C90.6641 93.0419 89.4781 92.6919 88.2851 92.3649C88.1502 92.3317 88.0263 92.2636 87.9261 92.1674C87.8259 92.0712 87.7527 91.9503 87.7141 91.8169C87.3511 90.8749 86.9631 89.9389 86.5501 89.0169C86.4795 88.8897 86.4443 88.7459 86.448 88.6005C86.4517 88.4551 86.4942 88.3133 86.5711 88.1899C87.1711 87.1389 87.7441 86.0709 88.3471 85.0209C88.3851 84.9773 88.4137 84.9264 88.4309 84.8712C88.4481 84.816 88.4535 84.7578 88.4469 84.7004C88.4404 84.643 88.4218 84.5875 88.3926 84.5377C88.3633 84.4878 88.324 84.4446 88.2771 84.4109C87.3951 83.5569 86.5267 82.6902 85.6721 81.8109C85.6408 81.7665 85.6008 81.729 85.5546 81.7006C85.5083 81.6722 85.4568 81.6535 85.4031 81.6456C85.3494 81.6378 85.2947 81.6409 85.2422 81.6549C85.1898 81.6688 85.1407 81.6933 85.0981 81.7269C84.0361 82.3349 82.9571 82.9149 81.8981 83.5269C81.7744 83.604 81.632 83.6459 81.4863 83.648C81.3405 83.6501 81.1969 83.6124 81.0711 83.5389C80.1761 83.1329 79.2711 82.7389 78.3521 82.3979C78.1983 82.3595 78.0581 82.2798 77.9465 82.1673C77.8349 82.0548 77.7562 81.9139 77.7191 81.7599C77.4011 80.5789 77.0451 79.4089 76.7271 78.2279C76.7221 78.1769 76.7066 78.1276 76.6816 78.0829C76.6565 78.0383 76.6224 77.9994 76.5815 77.9686C76.5406 77.9379 76.4938 77.916 76.4439 77.9043C76.3941 77.8926 76.3424 77.8915 76.2921 77.9009C75.0514 77.9135 73.8101 77.9135 72.5681 77.9009C72.5148 77.8907 72.46 77.8919 72.4072 77.9043C72.3544 77.9167 72.3048 77.9401 72.2616 77.9729C72.2184 78.0057 72.1826 78.0472 72.1565 78.0948C72.1304 78.1423 72.1146 78.1948 72.1101 78.2489C71.7951 79.4299 71.4411 80.6009 71.1191 81.7819C71.0853 81.9234 71.0147 82.0534 70.9144 82.1588C70.8142 82.2642 70.6878 82.3412 70.5481 82.3819C69.6181 82.7379 68.6951 83.1179 67.7871 83.5289C67.6546 83.6043 67.5042 83.6423 67.3518 83.6388C67.1994 83.6353 67.0509 83.5904 66.9221 83.5089C65.8591 82.8999 64.7811 82.3169 63.7141 81.7149C63.6778 81.6837 63.6355 81.6603 63.5898 81.6462C63.5441 81.6321 63.496 81.6275 63.4484 81.6328C63.4009 81.638 63.3549 81.653 63.3134 81.6767C63.2719 81.7005 63.2357 81.7325 63.2071 81.7709C62.3297 82.6689 61.4421 83.5565 60.5441 84.4339C60.5003 84.4663 60.4638 84.5074 60.4368 84.5546C60.4097 84.6018 60.3927 84.6542 60.3869 84.7083C60.3811 84.7624 60.3865 84.8171 60.4029 84.869C60.4193 84.9209 60.4462 84.9689 60.4821 85.0099C61.0821 86.0629 61.6541 87.1289 62.2561 88.1789C62.3367 88.3082 62.3805 88.457 62.383 88.6094C62.3854 88.7618 62.3464 88.912 62.2701 89.0439C61.8591 89.9519 61.4831 90.8769 61.1271 91.8069C61.0856 91.9466 61.0075 92.0727 60.901 92.1722C60.7945 92.2717 60.6633 92.341 60.5211 92.3729C59.3291 92.6969 58.1421 93.0509 56.9491 93.3729C56.9015 93.3781 56.8555 93.3931 56.8139 93.4169C56.7724 93.4407 56.7361 93.4727 56.7074 93.5111C56.6788 93.5494 56.6582 93.5932 56.6472 93.6398C56.6361 93.6864 56.6347 93.7347 56.6431 93.7819C56.6521 94.8029 56.6501 95.8249 56.6431 96.8459L70.4171 96.8429Z" fill="#FF7800"/>
<path d="M65.1772 17.5209C63.3349 15.6765 61.0877 14.2872 58.6143 13.4637C56.1409 12.6402 53.5094 12.405 50.9292 12.7769C50.8731 12.7848 50.8211 12.8107 50.7811 12.8508C50.741 12.8908 50.7151 12.9428 50.7072 12.9989C50.3389 15.5661 50.5707 18.1838 51.3844 20.6464C52.1982 23.1089 53.5717 25.3493 55.3971 27.1916C57.2226 29.0339 59.4503 30.428 61.9053 31.2643C64.3602 32.1007 66.9756 32.3566 69.5462 32.0119C69.6475 31.9985 69.7417 31.952 69.814 31.8797C69.8863 31.8074 69.9328 31.7133 69.9462 31.6119C70.2908 29.0541 70.0399 26.4513 69.2132 24.0064C68.3865 21.5615 67.0063 19.3406 65.1802 17.5169L65.1772 17.5209ZM68.2382 30.3009C66.5147 30.4874 64.7715 30.281 63.1392 29.6971C61.507 29.1133 60.0283 28.1672 58.8142 26.9299C58.5612 26.6779 58.3282 26.4149 58.1032 26.1479C59.2861 27.1572 60.663 27.9139 62.1492 28.3713C63.6354 28.8288 65.1994 28.9773 66.7452 28.8079C66.9146 27.2621 66.7661 25.6981 66.3086 24.2119C65.8512 22.7257 65.0945 21.3488 64.0852 20.1659C64.3522 20.3909 64.6152 20.6239 64.8672 20.8769C66.1048 22.0908 67.0512 23.5694 67.635 25.2017C68.2189 26.834 68.4251 28.5774 68.2382 30.3009Z" fill="#E80368"/>
<path d="M86.1452 38.4891C84.3214 36.6629 82.1005 35.2827 79.6556 34.456C77.2107 33.6293 74.6079 33.3785 72.0502 33.7231C71.9488 33.7365 71.8547 33.7829 71.7824 33.8552C71.71 33.9275 71.6636 34.0217 71.6502 34.123C71.3057 36.6935 71.5617 39.3089 72.3981 41.7637C73.2346 44.2186 74.6286 46.4462 76.4709 48.2716C78.3132 50.097 80.5534 51.4705 83.0159 52.2844C85.4784 53.0982 88.096 53.3302 90.6632 52.9621C90.7192 52.9537 90.7711 52.9277 90.8112 52.8877C90.8513 52.8478 90.8776 52.796 90.8862 52.7401C91.2577 50.1596 91.0222 47.5281 90.1983 45.0547C89.3744 42.5813 87.9849 40.3342 86.1402 38.4921L86.1452 38.4891ZM77.5102 45.5691C77.2432 45.3441 76.9802 45.111 76.7282 44.858C75.4909 43.6439 74.5448 42.1652 73.9609 40.533C73.3771 38.9008 73.1707 37.1575 73.3572 35.4341C75.0806 35.2475 76.8239 35.4539 78.4562 36.0377C80.0884 36.6216 81.5671 37.5677 82.7812 38.8051C83.0342 39.0571 83.2682 39.3201 83.4922 39.5871C82.3093 38.5777 80.9324 37.8211 79.4462 37.3636C77.96 36.9062 76.3959 36.7576 74.8502 36.927C74.6807 38.4728 74.8293 40.0369 75.2867 41.5231C75.7442 43.0093 76.5008 44.3861 77.5102 45.5691Z" fill="#E80368"/>
<path d="M69.9442 34.1189C69.9308 34.0175 69.8843 33.9234 69.812 33.8511C69.7397 33.7788 69.6456 33.7323 69.5442 33.7189C66.9737 33.3742 64.3583 33.6301 61.9033 34.4665C59.4483 35.3028 57.2206 36.6969 55.3952 38.5392C53.5697 40.3815 52.1962 42.6219 51.3825 45.0845C50.5687 47.547 50.3369 50.1647 50.7052 52.7319C50.7133 52.7879 50.7393 52.8398 50.7793 52.8799C50.8193 52.9199 50.8712 52.9459 50.9272 52.9539C53.4946 53.3224 56.1124 53.0907 58.5751 52.277C61.0378 51.4633 63.2784 50.0898 65.1209 48.2644C66.9634 46.439 68.3577 44.2112 69.1942 41.7562C70.0307 39.3011 70.2868 36.6856 69.9422 34.1149L69.9442 34.1189ZM64.8622 44.8499C64.6102 45.1019 64.3472 45.3359 64.0802 45.5599C65.0893 44.3773 65.8458 43.0007 66.3032 41.5149C66.7607 40.029 66.9094 38.4654 66.7402 36.9199C65.1945 36.7505 63.6304 36.899 62.1442 37.3565C60.658 37.8139 59.2811 38.5706 58.0982 39.5799C58.3232 39.3129 58.5562 39.0509 58.8092 38.7979C60.0233 37.5606 61.5021 36.6146 63.1343 36.0307C64.7665 35.4469 66.5098 35.2404 68.2332 35.4269C68.4202 37.1504 68.2139 38.8938 67.6301 40.5261C67.0462 42.1584 66.0998 43.6371 64.8622 44.8509" fill="#E80368"/>
<path d="M90.8919 12.998C90.8839 12.9418 90.858 12.8898 90.818 12.8496C90.778 12.8094 90.7261 12.7832 90.67 12.775C88.1027 12.407 85.4851 12.6392 83.0227 13.4531C80.5602 14.2671 78.3199 15.6407 76.4777 17.4662C74.6354 19.2916 73.2414 21.5193 72.405 23.9742C71.5686 26.4291 71.3125 29.0444 71.657 31.615C71.6704 31.7163 71.7168 31.8105 71.7891 31.8828C71.8614 31.9551 71.9556 32.0015 72.057 32.015C74.6275 32.3587 77.2427 32.102 79.6973 31.2649C82.1519 30.4279 84.3791 29.0334 86.2041 27.1908C88.029 25.3482 89.4021 23.1077 90.2154 20.6451C91.0288 18.1826 91.2604 15.565 90.8919 12.998ZM82.7919 26.933C81.5782 28.1707 80.0995 29.1171 78.4672 29.7008C76.8348 30.2845 75.0914 30.4904 73.368 30.303C73.1815 28.5795 73.388 26.8363 73.9718 25.2041C74.5557 23.5719 75.5017 22.0931 76.7389 20.879C76.9919 20.627 77.2539 20.394 77.5209 20.169C76.5116 21.3519 75.7549 22.7288 75.2975 24.215C74.84 25.7011 74.6915 27.2652 74.8609 28.811C76.4067 28.9804 77.9708 28.8319 79.457 28.3744C80.9431 27.917 82.32 27.1603 83.5029 26.151C83.2789 26.419 83.0449 26.681 82.7919 26.933Z" fill="#E80368"/>
</svg>
